<svg xmlns="http://www.w3.org/2000/svg" width="22" height="18" viewBox="0 0 22 18" version="1.1">
	<path d="M 3.058 2.438 C 1.657 3.929, 0.575 6.593, 0.270 9.301 C -0.160 13.112, 0.095 13.953, 2.108 15.363 C 5.242 17.558, 9.162 17.429, 11.720 15.046 C 13.781 13.126, 13.841 13.125, 15.159 15.001 C 15.896 16.050, 17.737 17.203, 19.250 17.563 C 21.587 18.119, 22 17.900, 22 16.108 C 22 14.949, 21.385 14, 20.633 14 C 18.562 14, 14 6.449, 14 3.021 C 14 0.125, 13.821 0, 9.674 0 C 6.383 0, 4.801 0.583, 3.058 2.438 M 5.807 4.713 C 2.939 7.977, 2.709 10.683, 5.153 12.395 C 7.191 13.822, 7.550 13.812, 9.242 12.281 C 10.530 11.115, 11.006 9.520, 10.799 7.059 C 10.456 2.995, 8.234 1.950, 5.807 4.713" stroke="none" fill="black" fill-rule="evenodd"/>
</svg>