<svg xmlns="http://www.w3.org/2000/svg" width="25" height="21" viewBox="0 0 25 21" version="1.1">
	<path d="M 9 1.500 C 9 2.325, 8.662 3.012, 8.250 3.027 C 7.838 3.042, 6.390 4.853, 5.034 7.051 C 3.625 9.334, 2.017 10.837, 1.284 10.555 C -0.249 9.967, -0.586 19.520, 0.935 20.460 C 1.450 20.778, 3.063 18.380, 4.521 15.132 C 5.979 11.884, 8.676 7.768, 10.515 5.985 L 13.859 2.745 16.401 5.487 C 18.658 7.923, 23 17.496, 23 20.038 C 23 21.590, 24.732 21.142, 25.393 19.418 C 25.727 18.548, 25.936 15.736, 25.858 13.168 L 25.716 8.500 25 12.500 C 24.589 14.797, 24.223 15.512, 24.142 14.180 C 23.973 11.417, 18.868 3.722, 15.760 1.544 C 12.916 -0.447, 9 -0.473, 9 1.500 M 0.300 15 C 0.300 18.025, 0.487 19.263, 0.716 17.750 C 0.945 16.238, 0.945 13.763, 0.716 12.250 C 0.487 10.738, 0.300 11.975, 0.300 15" stroke="none" fill="black" fill-rule="evenodd"/>
</svg>