<svg xmlns="http://www.w3.org/2000/svg" viewBox="0 0 60 60" version="1.1"><path d="M 27.058 22.438 C 25.657 23.929, 24.575 26.593, 24.270 29.301 C 23.840 33.112, 24.095 33.953, 26.108 35.363 C 29.242 37.558, 33.162 37.429, 35.720 35.046 C 37.781 33.126, 37.841 33.125, 39.159 35.001 C 39.896 36.050, 41.737 37.203, 43.250 37.563 C 45.587 38.119, 46 37.900, 46 36.108 C 46 34.949, 45.385 34, 44.633 34 C 42.562 34, 38 26.449, 38 23.021 C 38 20.125, 37.821 20, 33.674 20 C 30.383 20, 28.801 20.583, 27.058 22.438 M 29.807 24.713 C 26.939 27.977, 26.709 30.683, 29.153 32.395 C 31.191 33.822, 31.550 33.812, 33.242 32.281 C 34.530 31.115, 35.006 29.520, 34.799 27.059 C 34.456 22.995, 32.234 21.950, 29.807 24.713" stroke="none" fill="black" fill-rule="evenodd"/></svg>