<svg xmlns="http://www.w3.org/2000/svg" width="38" height="58" viewBox="0 0 38 58" version="1.1">
	<path d="M 0 2.505 C 0 4.067, 0.711 9.140, 1.581 13.779 C 3.226 22.561, 3.077 28.993, 0.931 41.783 C 0.018 47.225, -0.006 49.691, 0.833 51.533 C 2.836 55.930, 3.686 54.184, 4.332 44.347 C 4.800 37.224, 5.424 34.189, 6.713 32.765 C 11.120 27.895, 23.924 26.094, 28.803 29.659 C 34.528 33.841, 37.118 45.118, 33.591 50.502 C 31.770 53.280, 29.579 53.785, 15 54.782 C 0.508 55.773, 1.728 57.582, 16.640 57.213 C 29.212 56.901, 35.224 55.022, 36.499 51.002 C 36.854 49.885, 37.562 49.229, 38.072 49.544 C 39.517 50.437, 39.165 44.376, 37.426 38.392 C 35.602 32.119, 31.888 27.262, 27.547 25.472 C 24.017 24.017, 13.372 25.244, 8.732 27.640 C 5.437 29.342, 5.392 29.259, 4.580 20 C 3.596 8.776, 0 -4.960, 0 2.505 M 0.272 47 C 0.272 49.475, 0.467 50.487, 0.706 49.250 C 0.944 48.013, 0.944 45.987, 0.706 44.750 C 0.467 43.513, 0.272 44.525, 0.272 47" stroke="none" fill="black" fill-rule="evenodd"/>
</svg>