<svg xmlns="http://www.w3.org/2000/svg" viewBox="0 0 60 60" version="1.1"><path d="M 29.321 11.605 C 28.982 12.488, 29.222 17.412, 29.853 22.547 C 30.484 27.682, 31 33.619, 31 35.742 C 31 40.424, 32.398 42, 36.551 42 C 46.787 42, 51.743 35.012, 47.011 27.250 C 45.217 24.308, 44.574 24, 40.215 24 C 37.567 24, 34.896 24.504, 34.279 25.121 C 33.452 25.948, 32.973 24.118, 32.450 18.121 C 31.776 10.391, 30.670 8.089, 29.321 11.605 M 35.449 30.468 C 33.622 34.840, 33.625 36.444, 35.461 37.968 C 37.347 39.533, 43.488 37.668, 44.569 35.202 C 46.196 31.492, 43.307 27, 39.294 27 C 37.505 27, 36.531 27.879, 35.449 30.468" stroke="none" fill="black" fill-rule="evenodd"/></svg>