<svg xmlns="http://www.w3.org/2000/svg" width="20" height="32" viewBox="0 0 20 32" version="1.1">
	<path d="M 0.321 1.605 C -0.018 2.488, 0.222 7.412, 0.853 12.547 C 1.484 17.682, 2 23.619, 2 25.742 C 2 30.424, 3.398 32, 7.551 32 C 17.787 32, 22.743 25.012, 18.011 17.250 C 16.217 14.308, 15.574 14, 11.215 14 C 8.567 14, 5.896 14.504, 5.279 15.121 C 4.452 15.948, 3.973 14.118, 3.450 8.121 C 2.776 0.391, 1.670 -1.911, 0.321 1.605 M 6.449 20.468 C 4.622 24.840, 4.625 26.444, 6.461 27.968 C 8.347 29.533, 14.488 27.668, 15.569 25.202 C 17.196 21.492, 14.307 17, 10.294 17 C 8.505 17, 7.531 17.879, 6.449 20.468" stroke="none" fill="black" fill-rule="evenodd"/>
</svg>