<svg xmlns="http://www.w3.org/2000/svg" width="30" height="39" viewBox="0 0 30 39" version="1.1">
	<path d="M 15 2.106 C 6.053 7.470, 0.002 17.366, 0.001 26.639 C -0 33.406, 1.864 35.453, 9.831 37.429 C 16.912 39.186, 30 39.556, 30 38 C 30 37.450, 28.709 37, 27.131 37 C 21.912 37, 6.540 33.928, 4.250 32.428 C 0.279 29.827, 1.981 19.993, 7.754 12.182 C 14.328 3.286, 25.167 -0.071, 28.520 5.750 L 30.104 8.500 29.497 5.500 C 29.164 3.850, 28.154 1.937, 27.254 1.250 C 24.768 -0.649, 18.913 -0.240, 15 2.106" stroke="none" fill="black" fill-rule="evenodd"/>
</svg>