<svg xmlns="http://www.w3.org/2000/svg" width="39" height="68" viewBox="0 0 39 68" version="1.1">
	<path d="M 28.017 7.750 C 28.121 12.013, 28.160 19.438, 28.103 24.250 L 28 33 24.250 33.006 C 19.173 33.013, 13.420 34.710, 8.991 37.506 C 4.296 40.470, -0 49.136, 0 55.645 C 0 59.644, 0.500 60.736, 3.882 64.118 L 7.765 68 16.150 68 C 23.346 68, 25.035 67.661, 28.056 65.608 C 31.154 63.503, 31.803 63.383, 33.479 64.608 C 34.526 65.374, 36.296 66, 37.414 66 C 39.374 66, 39.367 65.945, 37.223 64.443 C 34.487 62.528, 34.429 60.503, 36.960 55.429 L 38.920 51.500 38.960 55.417 C 38.982 57.571, 39.230 59.103, 39.512 58.821 C 40.485 57.849, 38.178 26.479, 36.584 19 C 33.523 4.638, 31.856 0, 29.755 0 C 28 0, 27.844 0.697, 28.017 7.750 M 32.063 24.816 C 32.027 31.282, 32.473 37.015, 33.103 38.193 C 33.918 39.714, 33.905 40.441, 33.054 40.967 C 31.656 41.831, 32.028 55.601, 33.441 55.298 C 34.839 54.999, 36.905 46.229, 36.956 40.381 C 37.004 34.814, 34.618 19.726, 33.082 15.889 C 32.386 14.148, 32.110 16.571, 32.063 24.816 M 16.525 36.710 C 7.855 39.006, 0.491 50.898, 3.012 58.535 C 4.566 63.246, 7.440 64.930, 15.156 65.650 C 20.570 66.156, 22.271 65.903, 25.900 64.051 L 30.212 61.851 29.407 56.176 C 28.965 53.054, 28.580 47.350, 28.551 43.500 L 28.500 36.500 23.500 36.344 C 20.750 36.258, 17.611 36.423, 16.525 36.710 M 0.300 55 C 0.300 58.025, 0.487 59.263, 0.716 57.750 C 0.945 56.237, 0.945 53.763, 0.716 52.250 C 0.487 50.737, 0.300 51.975, 0.300 55" stroke="none" fill="black" fill-rule="evenodd"/>
</svg>