<svg xmlns="http://www.w3.org/2000/svg" width="32" height="33" viewBox="0 0 32 33" version="1.1">
	<path d="M 17.361 1.502 C 17.044 2.328, 17.073 4.155, 17.426 5.562 C 18.460 9.680, 17.070 15.149, 15.133 14.584 C 8.159 12.547, 6.088 12.758, 3.029 15.817 C 0.445 18.401, -0 19.599, -0 23.972 C -0 29.033, 0.054 29.122, 4.250 31.027 C 8.797 33.091, 17.470 33.667, 18.516 31.974 C 18.865 31.410, 19.403 28.497, 19.712 25.500 C 20.021 22.503, 20.620 20.265, 21.042 20.526 C 21.464 20.787, 23.206 23.475, 24.913 26.500 C 27.050 30.286, 28.638 32, 30.009 32 C 32.337 32, 32.587 30.315, 30.590 28.079 C 27.335 24.434, 23.093 15.056, 21.962 9 C 21.293 5.425, 20.593 1.938, 20.405 1.250 C 19.933 -0.475, 18.060 -0.320, 17.361 1.502 M 4.557 19.223 C 1.847 23.091, 2.575 25.742, 6.960 27.980 C 12.891 31.006, 15.613 30.686, 16.375 26.875 C 17.593 20.784, 17.152 18.274, 14.750 17.630 C 9.988 16.354, 6.145 16.954, 4.557 19.223" stroke="none" fill="black" fill-rule="evenodd"/>
</svg>