<svg xmlns="http://www.w3.org/2000/svg" viewBox="0 0 60 60" version="1.1"><path d="M 39.361 7.502 C 39.044 8.328, 39.073 10.155, 39.426 11.562 C 40.460 15.680, 39.070 21.149, 37.133 20.584 C 30.159 18.547, 28.088 18.758, 25.029 21.817 C 22.445 24.401, 22 25.599, 22 29.972 C 22 35.033, 22.054 35.122, 26.250 37.027 C 30.797 39.091, 39.470 39.667, 40.516 37.974 C 40.865 37.410, 41.403 34.497, 41.712 31.500 C 42.021 28.503, 42.620 26.265, 43.042 26.526 C 43.464 26.787, 45.206 29.475, 46.913 32.500 C 49.050 36.286, 50.638 38, 52.009 38 C 54.337 38, 54.587 36.315, 52.590 34.079 C 49.335 30.434, 45.093 21.056, 43.962 15 C 43.293 11.425, 42.593 7.938, 42.405 7.250 C 41.933 5.525, 40.060 5.680, 39.361 7.502 M 26.557 25.223 C 23.847 29.091, 24.575 31.742, 28.960 33.980 C 34.891 37.006, 37.613 36.686, 38.375 32.875 C 39.593 26.784, 39.152 24.274, 36.750 23.630 C 31.988 22.354, 28.145 22.954, 26.557 25.223" stroke="none" fill="black" fill-rule="evenodd"/></svg>