<svg xmlns="http://www.w3.org/2000/svg" viewBox="0 0 60 60" version="1.1"><path d="M 26.896 20.331 C 21.905 22.571, 20.999 23.963, 21.015 29.372 C 21.024 32.193, 21.377 35.045, 21.800 35.711 C 22.855 37.371, 29.382 40, 32.448 40 C 36.136 40, 43 37.002, 43 35.391 C 43 33.604, 41.131 33.630, 36.708 35.478 C 30.785 37.952, 24 34.658, 24 29.309 C 24 27.117, 24.355 27, 31 27 C 37.408 27, 38 26.825, 38 24.934 C 38 19.380, 33.329 17.444, 26.896 20.331 M 30 23 C 28.835 23.753, 29.128 23.973, 31.309 23.985 C 32.930 23.994, 33.857 23.577, 33.500 23 C 32.733 21.758, 31.921 21.758, 30 23" stroke="none" fill="black" fill-rule="evenodd"/></svg>