<svg xmlns="http://www.w3.org/2000/svg" width="22" height="21" viewBox="0 0 22 21" version="1.1">
	<path d="M 5.896 1.331 C 0.905 3.571, -0.001 4.963, 0.015 10.372 C 0.034 16.601, 0.550 17.496, 5.253 19.461 C 9.934 21.417, 12.953 21.403, 17.953 19.402 C 22.383 17.630, 23.497 14.850, 22.741 7.456 C 22.397 4.096, 22.309 4.329, 22.158 9 L 21.980 14.500 16.925 16.175 C 9.313 18.698, 3 16.039, 3 10.309 C 3 8.117, 3.355 8, 10 8 C 16.408 8, 17 7.825, 17 5.934 C 17 0.380, 12.329 -1.556, 5.896 1.331 M 9 4 C 7.835 4.753, 8.128 4.973, 10.309 4.985 C 11.930 4.994, 12.857 4.577, 12.500 4 C 11.733 2.758, 10.921 2.758, 9 4 M 0.310 10.500 C 0.315 13.800, 0.502 15.029, 0.725 13.232 C 0.947 11.435, 0.943 8.735, 0.715 7.232 C 0.486 5.729, 0.304 7.200, 0.310 10.500" stroke="none" fill="black" fill-rule="evenodd"/>
</svg>