<svg xmlns="http://www.w3.org/2000/svg" viewBox="0 0 60 60" version="1.1"><path d="M 38.302 16.953 C 37.884 18.551, 36.764 18.960, 32.146 19.203 L 26.500 19.500 26.186 24.467 C 25.796 30.654, 27.315 32, 34.691 32 C 39.625 32, 40 32.169, 40 34.394 C 40 36.252, 38.938 37.315, 35.250 39.144 C 29.373 42.059, 28.804 44.707, 32.377 52.512 C 34.472 57.087, 35.317 58, 37.459 58 C 41.398 58, 43.992 52.972, 43.996 45.329 C 44 39.257, 44.049 39.148, 47.068 38.485 C 49.966 37.848, 51.928 35.595, 50.675 34.341 C 50.360 34.026, 48.764 34.235, 47.128 34.806 C 43.482 36.077, 43.433 35.976, 41.831 23.947 C 40.689 15.367, 39.390 12.793, 38.302 16.953 M 29 24.465 C 29 27.263, 31.940 29.291, 35.302 28.813 C 36.969 28.575, 37.576 27.716, 37.813 25.250 C 38.126 22.012, 38.109 22, 33.563 22 C 29.380 22, 29 22.205, 29 24.465 M 35.750 42.572 C 33.010 44.058, 33.006 44.078, 34.591 47.782 C 35.466 49.827, 36.414 52.063, 36.698 52.750 C 38.128 56.213, 41 51.007, 41 44.953 C 41 40.594, 40.127 40.198, 35.750 42.572" stroke="none" fill="black" fill-rule="evenodd"/></svg>