<svg xmlns="http://www.w3.org/2000/svg" width="25" height="43" viewBox="0 -20 25 63" version="1.1">
	<path d="M 12.302 1.953 C 11.884 3.551, 10.764 3.960, 6.146 4.203 L 0.500 4.500 0.186 9.467 C -0.204 15.654, 1.315 17, 8.691 17 C 13.625 17, 14 17.169, 14 19.394 C 14 21.252, 12.938 22.315, 9.250 24.144 C 3.373 27.059, 2.804 29.707, 6.377 37.512 C 8.472 42.087, 9.317 43, 11.459 43 C 15.398 43, 17.992 37.972, 17.996 30.329 C 18 24.257, 18.049 24.148, 21.068 23.485 C 23.966 22.848, 25.928 20.595, 24.675 19.341 C 24.360 19.026, 22.764 19.235, 21.128 19.806 C 17.482 21.077, 17.433 20.976, 15.831 8.947 C 14.689 0.367, 13.390 -2.207, 12.302 1.953 M 3 9.465 C 3 12.263, 5.940 14.291, 9.302 13.813 C 10.969 13.575, 11.576 12.716, 11.813 10.250 C 12.126 7.012, 12.109 7, 7.563 7 C 3.380 7, 3 7.205, 3 9.465 M 9.750 27.572 C 7.010 29.058, 7.006 29.078, 8.591 32.782 C 9.466 34.827, 10.414 37.063, 10.698 37.750 C 12.128 41.213, 15 36.007, 15 29.953 C 15 25.594, 14.127 25.198, 9.750 27.572" stroke="none" fill="black" fill-rule="evenodd"/>
</svg>