<svg xmlns="http://www.w3.org/2000/svg" width="25" height="22" viewBox="0 0 25 22" version="1.1">
	<path d="M 2.750 3.226 C -1.848 8.585, -0.715 16.965, 5.071 20.383 C 7.327 21.716, 9.841 22.030, 16.402 21.798 L 24.834 21.500 25.539 13.553 L 26.243 5.606 23.106 2.803 C 20.278 0.277, 19.254 0.001, 12.734 0.010 C 5.838 0.020, 5.372 0.170, 2.750 3.226 M 8.169 3.807 C 3.169 5.761, 1.751 7.760, 2.188 12.240 C 2.559 16.044, 7.658 20, 12.188 20 C 16.625 20, 20.757 16.397, 21.524 11.859 C 22.328 7.098, 24.713 6.710, 25.277 11.250 C 25.551 13.460, 25.706 12.900, 25.761 9.500 C 25.806 6.750, 25.619 5.051, 25.346 5.725 C 24.990 6.603, 24.085 6.383, 22.142 4.947 C 18.432 2.204, 13.333 1.788, 8.169 3.807" stroke="none" fill="black" fill-rule="evenodd"/>
</svg>