<svg xmlns="http://www.w3.org/2000/svg" width="44" height="73" viewBox="0 0 44 73" version="1.1">
	<path d="M 0.415 3.750 C 0.740 5.813, 1.686 16.135, 2.517 26.688 C 3.348 37.241, 4.505 48.266, 5.087 51.188 C 5.669 54.110, 6.353 58.480, 6.606 60.900 C 7.138 65.978, 7.733 67.256, 9.317 66.728 C 9.989 66.504, 10.327 64.644, 10.147 62.152 C 9.754 56.706, 12.821 50.337, 18.640 44.518 C 25.750 37.408, 33.044 37.105, 37.159 43.748 C 39.167 46.991, 39.551 49.194, 39.991 59.989 C 40.413 70.352, 40.771 72.530, 42.091 72.782 C 43.449 73.041, 43.710 71.628, 43.877 63.131 C 44.117 50.930, 42.777 45.231, 38.505 40.291 C 35.441 36.748, 34.894 36.514, 30.142 36.710 C 27.345 36.825, 23.671 37.636, 21.978 38.512 C 18.451 40.335, 11.253 47.648, 10.423 50.250 C 8.558 56.099, 6.711 47.169, 4.993 24 C 4.401 16.025, 3.649 7.972, 3.320 6.105 C 2.878 3.591, 3.038 2.905, 3.935 3.460 C 4.800 3.994, 4.771 3.605, 3.833 2.105 C 1.611 -1.454, -0.263 -0.552, 0.415 3.750" stroke="none" fill="black" fill-rule="evenodd"/>
</svg>