<svg xmlns="http://www.w3.org/2000/svg" width="16" height="35" viewBox="0 0 16 35" version="1.1">
	<path d="M 1.375 1.202 C 0.967 1.863, 0.432 9.738, 0.186 18.702 C -0.200 32.807, -0.055 35, 1.259 35 C 2.179 35, 3.020 33.720, 3.392 31.750 C 3.731 29.962, 5.423 26.989, 7.154 25.143 C 10.819 21.234, 11.407 21.748, 12.490 29.804 C 13.051 33.979, 13.553 35.040, 14.851 34.791 C 16.285 34.516, 16.509 32.653, 16.569 20.488 C 16.636 6.977, 16.619 6.858, 16.069 17 C 15.524 27.064, 15.465 27.282, 14.656 22.250 C 14.192 19.362, 13.292 17.003, 12.656 17.007 C 11.075 17.016, 6.308 20.240, 4.417 22.580 C 3.001 24.331, 2.917 23.424, 3.461 12.250 C 4.021 0.727, 3.471 -2.188, 1.375 1.202 M 0.395 21.500 C 0.396 29.200, 0.553 32.218, 0.743 28.206 C 0.934 24.195, 0.932 17.895, 0.741 14.206 C 0.549 10.518, 0.393 13.800, 0.395 21.500" stroke="none" fill="black" fill-rule="evenodd"/>
</svg>