<svg xmlns="http://www.w3.org/2000/svg" width="274" height="90" viewBox="0 0 274 90" version="1.1">
	<path d="M 266.924 2.593 C 265.591 4.019, 262.827 6.382, 260.783 7.843 C 258.739 9.304, 252.214 14.707, 246.283 19.850 C 227.710 35.954, 229.057 35.238, 228.921 29.083 C 228.814 24.242, 226.678 12.345, 225.749 11.415 C 224.764 10.430, 224.780 10.707, 226.447 23.336 C 227.518 31.441, 227.599 34.786, 226.771 36.603 C 225.862 38.599, 225.976 39.262, 227.408 40.309 C 228.908 41.406, 229.107 42.987, 228.827 51.543 C 228.397 64.644, 230.244 65.832, 231.224 53.084 C 232.138 41.187, 234.881 34.962, 239.742 33.753 C 242.770 33, 243.563 33.436, 251.775 40.365 C 256.611 44.444, 263.393 50.803, 266.846 54.495 C 273.282 61.375, 276.324 62.735, 271.691 56.662 C 266.905 50.386, 245.916 31.512, 243.352 31.178 C 241.993 31.001, 241.021 30.525, 241.191 30.122 C 241.784 28.714, 261.591 11.466, 267.743 7 C 271.152 4.525, 273.955 1.938, 273.971 1.250 C 274.022 -0.959, 269.426 -0.083, 266.924 2.593 M 122.587 12.746 C 121.891 13.442, 123.961 18.355, 125.313 19.214 C 127.422 20.555, 127.861 20.065, 127.679 16.573 C 127.539 13.898, 127.012 13.052, 125.274 12.716 C 124.049 12.480, 122.840 12.493, 122.587 12.746 M 0.709 13.624 C -1.033 15.366, 0.091 17.122, 2.750 16.816 C 4.387 16.628, 5.500 15.893, 5.500 15 C 5.500 13.428, 1.930 12.403, 0.709 13.624 M 4.679 39.214 C 4.004 46.237, 6.797 63.099, 8.743 63.748 C 10.125 64.208, 10.131 61.380, 8.764 54 C 8.204 50.975, 7.690 45.163, 7.623 41.085 C 7.467 31.654, 5.525 30.419, 4.679 39.214 M 131.880 37.915 C 131.123 40.085, 129.559 41.583, 126.650 42.921 C 122.503 44.830, 122.502 44.832, 125.550 44.916 C 127.227 44.962, 129.115 44.485, 129.745 43.855 C 131.044 42.556, 131.672 44.497, 132.376 52 C 132.608 54.475, 133.519 59.109, 134.399 62.299 C 137.672 74.152, 136.120 82.736, 130.180 85.634 C 123.261 89.009, 114.858 87.386, 112.924 82.301 C 111.575 78.753, 110.615 80.133, 111.425 84.453 C 111.909 87.034, 112.607 88, 113.986 88 C 115.029 88, 116.160 88.450, 116.500 89 C 117.481 90.588, 125.043 90.156, 130.493 88.201 C 139.599 84.935, 142.243 75.842, 137.867 62.839 C 136.311 58.215, 135.683 53.675, 135.546 46.060 C 135.349 35.073, 133.952 31.970, 131.880 37.915 M 231.152 36.885 C 230.410 37.355, 229.961 38.559, 230.154 39.561 C 230.442 41.054, 230.726 40.898, 231.731 38.691 C 233.088 35.712, 233.074 35.667, 231.152 36.885" stroke="none" fill="black" fill-rule="evenodd"/>
</svg>