<svg xmlns="http://www.w3.org/2000/svg" width="5" height="31" viewBox="0 0 5 31" version="1.1">
	<path d="M 1.176 1.224 C -0.457 2.857, -0.298 6, 1.418 6 C 4.242 6, 6 4.744, 6 2.726 C 6 1.594, 5.704 0.963, 5.342 1.325 C 4.980 1.687, 4.159 1.547, 3.518 1.015 C 2.754 0.381, 1.947 0.453, 1.176 1.224 M 0.158 4 C 0.158 5.375, 0.385 5.938, 0.662 5.250 C 0.940 4.563, 0.940 3.438, 0.662 2.750 C 0.385 2.063, 0.158 2.625, 0.158 4 M 2.567 10.187 C 2.337 10.909, 1.953 15.887, 1.714 21.250 C 1.384 28.630, 1.583 31, 2.532 31 C 3.222 31, 4.059 30.288, 4.393 29.418 C 5.405 26.780, 5.072 10.162, 3.993 9.496 C 3.439 9.153, 2.798 9.464, 2.567 10.187" stroke="none" fill="black" fill-rule="evenodd"/>
</svg>