<svg xmlns="http://www.w3.org/2000/svg" width="38" height="76" viewBox="0 0 38 76" version="1.1">
	<path d="M 13.607 2.095 C 12.142 3.247, 10 6.039, 8.847 8.300 C 6.937 12.044, 6.801 13.532, 7.324 24.956 C 7.668 32.470, 8.718 40.708, 9.942 45.500 C 11.065 49.900, 11.988 53.789, 11.992 54.142 C 11.996 54.494, 10.787 55.088, 9.305 55.459 C 3.367 56.950, -0.387 59.013, 0.758 60.158 C 1.573 60.973, 2.957 60.834, 5.955 59.635 C 10.478 57.825, 14 57.510, 14 58.915 C 14 59.418, 15.389 63.468, 17.088 67.915 C 19.373 73.899, 20.644 76, 21.979 76 C 23.619 76, 23.549 75.524, 21.205 70.750 C 18.445 65.129, 17.487 62.791, 16.506 59.283 C 15.755 56.596, 16.944 56.205, 28.921 55.204 C 34.729 54.718, 37.481 54.069, 37.799 53.111 C 38.182 51.954, 36.690 51.856, 28.880 52.523 C 13.258 53.858, 14.995 54.618, 12.827 45.500 C 7.515 23.167, 9.129 6.260, 16.879 3.050 C 20.398 1.593, 22.072 2.026, 28.378 6.025 C 33.815 9.473, 35.888 13.424, 36.216 20.964 C 36.542 28.461, 38.001 27.056, 37.996 19.250 C 37.992 10.948, 36.011 7.266, 29.275 3.037 C 23.396 -0.655, 17.550 -1.007, 13.607 2.095" stroke="none" fill="black" fill-rule="evenodd"/>
</svg>