<svg xmlns="http://www.w3.org/2000/svg" width="17" height="33" viewBox="0 0 17 33" version="1.1">
	<path d="M 0.527 0.956 C 0.202 1.482, 0.485 8.907, 1.155 17.456 C 2.035 28.683, 2.725 33, 3.639 33 C 4.485 33, 5.003 31.019, 5.202 27.019 L 5.500 21.039 9.891 24.519 C 14.868 28.465, 17 28.909, 17 26 C 17 24.900, 16.663 23.996, 16.250 23.990 C 15.838 23.985, 13.612 22.479, 11.304 20.645 L 7.108 17.308 11.981 10.625 C 16.228 4.800, 16.909 4.234, 17.290 6.221 C 17.534 7.488, 17.788 6.627, 17.864 4.282 C 17.985 0.518, 17.794 0.142, 16.083 0.782 C 15.029 1.177, 11.935 4.564, 9.206 8.310 L 4.246 15.120 3.538 7.560 C 2.881 0.551, 1.988 -1.408, 0.527 0.956 M 0.272 5 C 0.272 7.475, 0.467 8.488, 0.706 7.250 C 0.944 6.012, 0.944 3.988, 0.706 2.750 C 0.467 1.512, 0.272 2.525, 0.272 5" stroke="none" fill="black" fill-rule="evenodd"/>
</svg>