<svg xmlns="http://www.w3.org/2000/svg" viewBox="0 0 60 60" version="1.1"><path d="M 22.527 19.956 C 22.202 20.482, 22.485 27.907, 23.155 36.456 C 24.035 47.683, 24.725 52, 25.639 52 C 26.485 52, 27.003 50.019, 27.202 46.019 L 27.500 40.039 31.891 43.519 C 36.868 47.465, 39 47.909, 39 45 C 39 43.900, 38.663 42.996, 38.250 42.990 C 37.837 42.985, 35.612 41.479, 33.304 39.645 L 29.108 36.308 34.054 29.524 C 36.774 25.793, 39 22.091, 39 21.297 C 39 18.378, 36.022 20.673, 31.197 27.310 L 26.246 34.120 25.538 26.560 C 24.881 19.551, 23.988 17.592, 22.527 19.956" stroke="none" fill="black" fill-rule="evenodd"/></svg>