<svg xmlns="http://www.w3.org/2000/svg" width="22" height="23" viewBox="0 0 22 23" version="1.1">
	<path d="M 7.282 1.302 C 1.610 3.414, 0.489 5.326, 0.597 12.708 C 0.680 18.318, 1.042 19.616, 2.958 21.167 C 7.279 24.666, 17.418 22.434, 20 17.415 C 20.825 15.812, 21.837 14.350, 22.250 14.167 C 22.663 13.983, 23 12.333, 23 10.500 C 23 8.667, 22.663 7.017, 22.250 6.833 C 21.837 6.650, 20.744 5.150, 19.820 3.500 C 18.456 1.063, 17.423 0.463, 14.320 0.302 C 12.219 0.194, 9.052 0.644, 7.282 1.302 M 9 4.473 C 4.794 5.896, 2.751 9.507, 3.640 13.951 C 4.571 18.604, 7.575 20.250, 12.422 18.763 C 15.276 17.887, 16.626 16.747, 17.617 14.375 C 19.292 10.365, 17.786 5, 14.986 5 C 13.985 5, 13.017 4.615, 12.833 4.145 C 12.650 3.674, 10.925 3.822, 9 4.473 M 0.252 11.500 C 0.263 13.700, 0.468 14.482, 0.707 13.238 C 0.946 11.994, 0.937 10.194, 0.687 9.238 C 0.437 8.282, 0.241 9.300, 0.252 11.500" stroke="none" fill="black" fill-rule="evenodd"/>
</svg>