<svg xmlns="http://www.w3.org/2000/svg" width="24" height="42" viewBox="0 0 24 42" version="1.1">
	<path d="M 1.588 0.858 C 1.296 1.329, 1.495 3.239, 2.029 5.101 C 3.363 9.752, 3.251 11, 1.500 11 C -0.566 11, -0.390 13.721, 1.751 14.867 C 3.013 15.542, 4.006 18.585, 5.314 25.787 C 7.171 36.019, 8.338 38.121, 13.684 40.875 C 17.220 42.696, 21.787 42.267, 23 40 C 24.229 37.704, 23.299 37.451, 19.686 39.097 C 17.803 39.955, 16.598 39.844, 14.168 38.587 C 10.010 36.437, 9.282 34.802, 7.725 24.116 L 6.397 15 13.782 15 C 23.428 15, 23.207 12.879, 13.425 11.581 C 5.981 10.594, 5.039 9.950, 5.015 5.832 C 4.988 1.156, 3.099 -1.587, 1.588 0.858" stroke="none" fill="black" fill-rule="evenodd"/>
</svg>