<svg xmlns="http://www.w3.org/2000/svg" viewBox="0 0 60 60" version="1.1"><path d="M 33.282 23.326 C 27.622 25.391, 26.489 27.320, 26.597 34.708 C 26.680 40.318, 27.042 41.616, 28.958 43.167 C 33.517 46.859, 43.411 44.445, 46.305 38.936 C 48.456 34.839, 48.119 28.637, 45.529 24.684 C 44.132 22.553, 43.021 22.016, 40.135 22.076 C 38.136 22.118, 35.052 22.680, 33.282 23.326 M 35 26.473 C 30.794 27.896, 28.751 31.507, 29.640 35.951 C 30.571 40.604, 33.575 42.250, 38.422 40.763 C 41.276 39.887, 42.626 38.747, 43.617 36.375 C 45.292 32.365, 43.786 27, 40.986 27 C 39.985 27, 39.017 26.615, 38.833 26.145 C 38.650 25.674, 36.925 25.822, 35 26.473" stroke="none" fill="black" fill-rule="evenodd"/></svg>