<svg xmlns="http://www.w3.org/2000/svg" viewBox="0 0 60 60" version="1.1"><path d="M 37.667 14.667 C 37.300 15.033, 37 16.383, 37 17.667 C 37 19.853, 36.620 20, 30.984 20 C 25.075 20, 24.937 20.064, 23.273 23.554 C 22.012 26.197, 21.850 27.542, 22.641 28.804 C 23.920 30.844, 30.901 31.579, 35.101 30.114 L 38 29.104 38 39.927 C 38 52.268, 38.697 57, 40.517 57 C 41.213 57, 42.093 55.765, 42.472 54.255 C 42.851 52.745, 44.700 49.631, 46.581 47.336 C 48.461 45.041, 50 42.677, 50 42.082 C 50 39.818, 47.025 41.146, 44.073 44.728 L 41 48.456 40.995 40.978 C 40.987 30.082, 39.808 14, 39.016 14 C 38.640 14, 38.033 14.300, 37.667 14.667 M 26.574 24.667 C 26.222 25.584, 26.366 26.766, 26.893 27.293 C 28.395 28.795, 34.853 27.143, 36.023 24.957 C 36.997 23.137, 36.724 23, 32.142 23 C 28.464 23, 27.052 23.423, 26.574 24.667" stroke="none" fill="black" fill-rule="evenodd"/></svg>