<svg xmlns="http://www.w3.org/2000/svg" width="28" height="43" viewBox="0 0 28 43" version="1.1">
	<path d="M 15.667 0.667 C 15.300 1.033, 15 2.383, 15 3.667 C 15 5.853, 14.620 6, 8.984 6 C 3.075 6, 2.937 6.064, 1.273 9.554 C 0.012 12.197, -0.150 13.542, 0.641 14.804 C 1.920 16.844, 8.901 17.579, 13.101 16.114 L 16 15.104 16 25.927 C 16 38.268, 16.697 43, 18.517 43 C 19.213 43, 20.093 41.765, 20.472 40.255 C 20.851 38.745, 22.700 35.631, 24.581 33.336 C 26.461 31.041, 28 28.677, 28 28.082 C 28 25.818, 25.025 27.146, 22.073 30.728 L 19 34.456 18.995 26.978 C 18.987 16.082, 17.808 0, 17.016 0 C 16.640 0, 16.033 0.300, 15.667 0.667 M 4.574 10.667 C 4.222 11.584, 4.366 12.766, 4.893 13.293 C 6.395 14.795, 12.853 13.143, 14.023 10.957 C 14.997 9.137, 14.724 9, 10.142 9 C 6.464 9, 5.052 9.423, 4.574 10.667" stroke="none" fill="black" fill-rule="evenodd"/>
</svg>