<svg xmlns="http://www.w3.org/2000/svg" width="43" height="85" viewBox="0 0 43 85" version="1.1">
	<path d="M 10.500 1.555 C 3.729 3.646, -0.406 8.112, 0.315 12.557 C 1.709 21.146, 8.709 25.294, 21.884 25.337 C 26.623 25.352, 31.143 25.170, 31.928 24.932 C 32.926 24.630, 33.585 25.707, 34.114 28.500 C 38.702 52.735, 39.998 60.505, 39.988 63.719 C 39.973 68.576, 37.625 77.398, 35.474 80.681 C 34.032 82.880, 33.266 83.165, 29.971 82.723 C 27.866 82.441, 22.623 80.475, 18.322 78.355 C 11.641 75.062, 10.326 73.990, 9.306 71 L 8.113 67.500 8.056 71.076 C 7.986 75.544, 10.266 77.806, 19 81.929 C 26.308 85.380, 32.669 85.918, 36.497 83.410 C 37.868 82.512, 39.811 79.450, 40.962 76.372 C 43.773 68.859, 43.597 59.095, 40.377 43.888 C 38.640 35.682, 37.707 28.021, 37.615 21.195 C 37.487 11.808, 37.631 10.932, 39.237 11.352 C 40.207 11.605, 41 11.496, 41 11.109 C 41 10.039, 33.806 3.394, 31.199 2.056 C 27.393 0.103, 16.089 -0.171, 10.500 1.555 M 13.025 3.603 C 6.042 5.479, 3 8.262, 3 12.773 C 3 15.306, 3.799 16.944, 6.072 19.067 C 9.612 22.374, 13.849 23.481, 23 23.492 C 32.536 23.504, 33 23.160, 33 16.090 C 33 12.806, 33.450 9.840, 34 9.500 C 35.733 8.429, 35.103 7.225, 31.750 5.206 C 27.212 2.473, 19.641 1.825, 13.025 3.603" stroke="none" fill="black" fill-rule="evenodd"/>
</svg>