<svg xmlns="http://www.w3.org/2000/svg" viewBox="0 0 60 60" version="1.1"><path d="M 23.270 21.703 C 20.620 22.215, 17 26.505, 17 29.135 C 17 32.732, 20.579 35, 26.257 35 C 32.358 35, 38.012 36.415, 39.164 38.232 C 40.656 40.582, 40.015 43.637, 37.543 45.959 C 34.484 48.834, 29.876 48.213, 25.885 44.390 C 23.289 41.903, 19.936 41.442, 19.410 43.500 C 19.270 44.050, 20.745 45.825, 22.687 47.444 C 25.471 49.765, 27.413 50.468, 31.859 50.764 C 36.804 51.093, 37.829 50.827, 40.161 48.611 C 43.461 45.477, 44.585 40.826, 42.979 36.949 C 41.587 33.590, 37.351 32.014, 29.684 32.006 C 22.024 31.997, 18.731 29.128, 22.649 25.876 C 23.817 24.907, 26.733 24.583, 32.649 24.765 C 39.175 24.966, 41 24.724, 41 23.654 C 41 21.743, 29.571 20.486, 23.270 21.703" stroke="none" fill="black" fill-rule="evenodd"/></svg>