<svg xmlns="http://www.w3.org/2000/svg" width="26" height="42" viewBox="0 0 26 42" version="1.1">
	<path d="M 14.500 1.142 C 12.300 1.676, 9.522 2.313, 8.327 2.556 C 4.238 3.390, 0 7.892, 0 11.402 C -0 15.132, 2.305 17.600, 11.706 23.934 C 15.120 26.234, 19.374 29.481, 21.161 31.150 L 24.408 34.184 21.954 36.070 C 16.876 39.974, 13.747 39.669, 2.666 34.190 C 2.207 33.963, 1.982 34.840, 2.166 36.139 C 2.426 37.976, 3.609 38.870, 7.500 40.170 C 14.263 42.428, 18.864 42.380, 22.750 40.011 C 29.483 35.906, 26.350 30.733, 9.851 18.709 C 5.643 15.643, 1.914 12.671, 1.564 12.104 C 0.408 10.234, 4.780 7.148, 11.547 5.058 C 20.358 2.337, 21.351 2.385, 20.754 5.509 C 20.357 7.582, 20.520 7.814, 21.688 6.844 C 22.465 6.199, 22.966 4.508, 22.801 3.086 C 22.454 0.105, 20.579 -0.334, 14.500 1.142" stroke="none" fill="black" fill-rule="evenodd"/>
</svg>