<svg xmlns="http://www.w3.org/2000/svg" width="27" height="30" viewBox="0 0 27 30" version="1.1">
	<path d="M 6.270 0.703 C 3.620 1.215, -0 5.505, -0 8.135 C 0 11.732, 3.579 14, 9.257 14 C 15.358 14, 21.012 15.415, 22.164 17.232 C 23.656 19.582, 23.015 22.637, 20.543 24.959 C 17.484 27.834, 12.876 27.213, 8.885 23.390 C 6.289 20.903, 2.936 20.442, 2.410 22.500 C 2.270 23.050, 3.745 24.825, 5.687 26.444 C 8.471 28.765, 10.413 29.468, 14.859 29.764 C 19.804 30.093, 20.829 29.827, 23.161 27.611 C 26.461 24.477, 27.585 19.826, 25.979 15.949 C 24.587 12.590, 20.351 11.014, 12.684 11.006 C 5.024 10.997, 1.731 8.128, 5.649 4.876 C 6.817 3.907, 9.733 3.583, 15.649 3.765 C 22.175 3.966, 24 3.724, 24 2.654 C 24 0.743, 12.571 -0.514, 6.270 0.703" stroke="none" fill="black" fill-rule="evenodd"/>
</svg>