<svg xmlns="http://www.w3.org/2000/svg" width="50" height="35" viewBox="0 0 50 35" version="1.1">
	<path d="M 30.874 0.750 C 30.805 1.163, 30.848 5.388, 30.970 10.139 C 31.317 23.662, 27.301 30.774, 18.791 31.707 C 8.246 32.862, 0.413 20.769, 2.535 6.613 C 2.964 3.751, 2.849 2, 2.230 2 C 0.737 2, 0.288 4.757, 0.437 13.029 C 0.578 20.863, 1.611 23.455, 6.932 29.339 C 10.634 33.433, 14.218 35, 19.874 35 C 23.800 35, 25.512 34.440, 28.009 32.339 C 29.749 30.875, 31.575 28.617, 32.068 27.321 C 32.962 24.971, 32.976 24.976, 37.022 29.022 C 41.143 33.143, 44.573 35, 48.065 35 C 51.002 35, 50.377 33.325, 47.202 32.690 C 45.664 32.383, 42.461 30.406, 40.086 28.298 L 35.766 24.465 35.024 13.366 C 34.616 7.261, 33.967 1.756, 33.582 1.133 C 32.792 -0.146, 31.065 -0.390, 30.874 0.750" stroke="none" fill="black" fill-rule="evenodd"/>
</svg>