<svg xmlns="http://www.w3.org/2000/svg" width="29" height="27" viewBox="0 0 29 27" version="1.1">
	<path d="M 0.412 1.368 C 0.123 2.121, 1.878 7.183, 4.312 12.618 C 6.746 18.053, 9.051 23.512, 9.436 24.750 C 10.411 27.889, 14 27.791, 14 24.625 C 14 23.319, 14.289 20.804, 14.643 19.037 L 15.285 15.824 17.393 18.218 C 20.262 21.476, 24.089 24, 26.161 24 C 28.069 24, 28.653 21.006, 29.304 7.896 C 29.666 0.592, 29.608 0.355, 27.840 1.869 C 26.369 3.129, 26 4.891, 26 10.663 C 26 14.721, 25.531 18.172, 24.928 18.545 C 24.338 18.909, 21.799 17.061, 19.286 14.438 C 14.992 9.957, 14.634 9.781, 13.358 11.525 C 12.611 12.547, 12 14.421, 12 15.691 C 12 20.098, 10.182 17.952, 6.351 9.023 C 2.540 0.139, 1.432 -1.289, 0.412 1.368 M 0.079 2.583 C 0.127 3.748, 0.364 3.985, 0.683 3.188 C 0.972 2.466, 0.936 1.603, 0.604 1.271 C 0.272 0.939, 0.036 1.529, 0.079 2.583" stroke="none" fill="black" fill-rule="evenodd"/>
</svg>