<svg xmlns="http://www.w3.org/2000/svg" viewBox="0 0 60 60" version="1.1"><path d="M 7.412 25.368 C 7.123 26.121, 8.878 31.183, 11.312 36.618 C 13.746 42.053, 16.051 47.513, 16.436 48.750 C 17.411 51.889, 21 51.791, 21 48.625 C 21 47.319, 21.279 44.853, 21.621 43.146 L 22.242 40.042 25.729 43.529 C 29.174 46.974, 33.452 48.881, 34.774 47.560 C 35.148 47.186, 35.630 42.126, 35.845 36.317 C 36.164 27.704, 35.983 25.838, 34.868 26.207 C 33.913 26.523, 33.410 28.898, 33.201 34.079 C 33.037 38.159, 32.479 41.921, 31.961 42.439 C 31.374 43.026, 29.275 41.557, 26.368 38.524 C 21.999 33.964, 21.633 33.781, 20.358 35.525 C 19.611 36.547, 19 38.421, 19 39.691 C 19 44.098, 17.182 41.952, 13.351 33.023 C 9.540 24.139, 8.432 22.711, 7.412 25.368" stroke="none" fill="black" fill-rule="evenodd"/></svg>