<svg xmlns="http://www.w3.org/2000/svg" xmlns:xlink="http://www.w3.org/1999/xlink" width="0" height="0" style="display:none;"><symbol viewBox="0 0 60 60" id="MyFont-a"><path d="M 27.058 22.438 C 25.657 23.929, 24.575 26.593, 24.270 29.301 C 23.840 33.112, 24.095 33.953, 26.108 35.363 C 29.242 37.558, 33.162 37.429, 35.720 35.046 C 37.781 33.126, 37.841 33.125, 39.159 35.001 C 39.896 36.050, 41.737 37.203, 43.250 37.563 C 45.587 38.119, 46 37.900, 46 36.108 C 46 34.949, 45.385 34, 44.633 34 C 42.562 34, 38 26.449, 38 23.021 C 38 20.125, 37.821 20, 33.674 20 C 30.383 20, 28.801 20.583, 27.058 22.438 M 29.807 24.713 C 26.939 27.977, 26.709 30.683, 29.153 32.395 C 31.191 33.822, 31.550 33.812, 33.242 32.281 C 34.530 31.115, 35.006 29.520, 34.799 27.059 C 34.456 22.995, 32.234 21.950, 29.807 24.713" stroke="none" fill="black" fill-rule="evenodd"></path></symbol><symbol viewBox="0 0 60 60" id="MyFont-b"><path d="M 29.321 11.605 C 28.982 12.488, 29.222 17.412, 29.853 22.547 C 30.484 27.682, 31 33.619, 31 35.742 C 31 40.424, 32.398 42, 36.551 42 C 46.787 42, 51.743 35.012, 47.011 27.250 C 45.217 24.308, 44.574 24, 40.215 24 C 37.567 24, 34.896 24.504, 34.279 25.121 C 33.452 25.948, 32.973 24.118, 32.450 18.121 C 31.776 10.391, 30.670 8.089, 29.321 11.605 M 35.449 30.468 C 33.622 34.840, 33.625 36.444, 35.461 37.968 C 37.347 39.533, 43.488 37.668, 44.569 35.202 C 46.196 31.492, 43.307 27, 39.294 27 C 37.505 27, 36.531 27.879, 35.449 30.468" stroke="none" fill="black" fill-rule="evenodd"></path></symbol><symbol viewBox="0 0 60 60" id="MyFont-c"><path d="M 31.276 24.654 C 24.989 26.880, 21.828 31.140, 22.201 36.885 C 22.483 41.239, 22.754 41.631, 27 43.823 C 30.688 45.726, 32.508 46.048, 37.083 45.605 C 44.031 44.934, 46 44.200, 46 42.282 C 46 40.803, 43.935 40.873, 36.500 42.602 C 33.403 43.322, 25.559 38.916, 25.180 36.243 C 24.697 32.847, 29.612 28.540, 35.772 26.962 C 38.736 26.202, 41 25.054, 41 24.311 C 41 22.593, 36.664 22.746, 31.276 24.654" stroke="none" fill="black" fill-rule="evenodd"></path></symbol><symbol viewBox="0 0 60 60" id="MyFont-d"><path d="M 39.361 7.502 C 39.044 8.328, 39.073 10.155, 39.426 11.562 C 40.460 15.680, 39.070 21.149, 37.133 20.584 C 30.159 18.547, 28.088 18.758, 25.029 21.817 C 22.445 24.401, 22 25.599, 22 29.972 C 22 35.033, 22.054 35.122, 26.250 37.027 C 30.797 39.091, 39.470 39.667, 40.516 37.974 C 40.865 37.410, 41.403 34.497, 41.712 31.500 C 42.021 28.503, 42.620 26.265, 43.042 26.526 C 43.464 26.787, 45.206 29.475, 46.913 32.500 C 49.050 36.286, 50.638 38, 52.009 38 C 54.337 38, 54.587 36.315, 52.590 34.079 C 49.335 30.434, 45.093 21.056, 43.962 15 C 43.293 11.425, 42.593 7.938, 42.405 7.250 C 41.933 5.525, 40.060 5.680, 39.361 7.502 M 26.557 25.223 C 23.847 29.091, 24.575 31.742, 28.960 33.980 C 34.891 37.006, 37.613 36.686, 38.375 32.875 C 39.593 26.784, 39.152 24.274, 36.750 23.630 C 31.988 22.354, 28.145 22.954, 26.557 25.223" stroke="none" fill="black" fill-rule="evenodd"></path></symbol><symbol viewBox="0 0 60 60" id="MyFont-e"><path d="M 26.896 20.331 C 21.905 22.571, 20.999 23.963, 21.015 29.372 C 21.024 32.193, 21.377 35.045, 21.800 35.711 C 22.855 37.371, 29.382 40, 32.448 40 C 36.136 40, 43 37.002, 43 35.391 C 43 33.604, 41.131 33.630, 36.708 35.478 C 30.785 37.952, 24 34.658, 24 29.309 C 24 27.117, 24.355 27, 31 27 C 37.408 27, 38 26.825, 38 24.934 C 38 19.380, 33.329 17.444, 26.896 20.331 M 30 23 C 28.835 23.753, 29.128 23.973, 31.309 23.985 C 32.930 23.994, 33.857 23.577, 33.500 23 C 32.733 21.758, 31.921 21.758, 30 23" stroke="none" fill="black" fill-rule="evenodd"></path></symbol><symbol viewBox="0 0 60 60" id="MyFont-f"><path d="M 24.589 7.077 C 22.448 9.621, 22 11.168, 22 16.013 C 22 21.863, 21.994 21.874, 18.827 22.187 C 14.243 22.639, 13.898 25, 18.417 25 L 22 25 22.014 30.250 C 22.031 36.889, 22.857 40, 24.604 40 C 25.699 40, 25.847 38.494, 25.341 32.500 L 24.707 25 27.853 25 C 29.984 25, 31 24.516, 31 23.500 C 31 22.500, 30 22, 28 22 C 25.071 22, 25 21.883, 25 17.056 C 25 13.308, 25.569 11.450, 27.349 9.380 L 29.699 6.649 32.919 8.942 C 36.579 11.548, 38.135 14.769, 37.291 17.994 C 36.827 19.770, 37.084 20.127, 38.607 19.820 C 40.106 19.518, 40.485 18.595, 40.426 15.391 C 40.251 5.769, 30.151 0.467, 24.589 7.077" stroke="none" fill="black" fill-rule="evenodd"></path></symbol><symbol viewBox="0 0 60 60" id="MyFont-g"><path d="M 38.302 16.953 C 37.884 18.551, 36.764 18.960, 32.146 19.203 L 26.500 19.500 26.186 24.467 C 25.796 30.654, 27.315 32, 34.691 32 C 39.625 32, 40 32.169, 40 34.394 C 40 36.252, 38.938 37.315, 35.250 39.144 C 29.373 42.059, 28.804 44.707, 32.377 52.512 C 34.472 57.087, 35.317 58, 37.459 58 C 41.398 58, 43.992 52.972, 43.996 45.329 C 44 39.257, 44.049 39.148, 47.068 38.485 C 49.966 37.848, 51.928 35.595, 50.675 34.341 C 50.360 34.026, 48.764 34.235, 47.128 34.806 C 43.482 36.077, 43.433 35.976, 41.831 23.947 C 40.689 15.367, 39.390 12.793, 38.302 16.953 M 29 24.465 C 29 27.263, 31.940 29.291, 35.302 28.813 C 36.969 28.575, 37.576 27.716, 37.813 25.250 C 38.126 22.012, 38.109 22, 33.563 22 C 29.380 22, 29 22.205, 29 24.465 M 35.750 42.572 C 33.010 44.058, 33.006 44.078, 34.591 47.782 C 35.466 49.827, 36.414 52.063, 36.698 52.750 C 38.128 56.213, 41 51.007, 41 44.953 C 41 40.594, 40.127 40.198, 35.750 42.572" stroke="none" fill="black" fill-rule="evenodd"></path></symbol><symbol viewBox="0 0 60 60" id="MyFont-h"><path d="M 26.375 16.202 C 25.967 16.863, 25.432 24.738, 25.186 33.702 C 24.800 47.807, 24.945 50, 26.259 50 C 27.179 50, 28.020 48.720, 28.392 46.750 C 28.731 44.962, 30.423 41.989, 32.154 40.143 C 35.814 36.239, 36.407 36.752, 37.482 44.750 C 37.954 48.260, 38.654 50, 39.594 50 C 41.327 50, 41.391 46.851, 39.827 38.365 C 39.182 34.864, 38.170 32.003, 37.577 32.007 C 36.063 32.016, 31.267 35.292, 29.417 37.580 C 28.001 39.331, 27.917 38.424, 28.461 27.250 C 29.021 15.727, 28.471 12.812, 26.375 16.202" stroke="none" fill="black" fill-rule="evenodd"></path></symbol><symbol viewBox="0 0 60 60" id="MyFont-i"><path d="M 33.212 20.188 C 32.546 20.854, 32 22.241, 32 23.270 C 32 24.636, 32.605 25.053, 34.250 24.820 C 35.874 24.589, 36.500 23.828, 36.500 22.083 C 36.500 19.303, 34.976 18.424, 33.212 20.188 M 34.543 29.250 C 34.326 29.938, 33.953 34.888, 33.714 40.250 C 33.384 47.630, 33.583 50, 34.532 50 C 35.222 50, 36.059 49.288, 36.393 48.418 C 37.450 45.662, 37.083 28, 35.969 28 C 35.401 28, 34.760 28.563, 34.543 29.250" stroke="none" fill="black" fill-rule="evenodd"></path></symbol><symbol viewBox="0 0 60 60" id="MyFont-j"><path d="M 32.200 15.200 C 30.360 17.040, 30.772 19, 33 19 C 34.467 19, 35 18.333, 35 16.500 C 35 13.770, 34.064 13.336, 32.200 15.200 M 30.517 26.967 C 27.486 32.947, 27.482 33, 30 33 C 31.100 33, 32 32.550, 32 32 C 32 31.450, 32.385 31, 32.855 31 C 33.325 31, 34.280 34.977, 34.977 39.838 C 35.942 46.573, 35.968 49.191, 35.087 50.838 C 33.329 54.122, 31.465 53.439, 29.991 48.973 C 29.260 46.758, 28.176 45.106, 27.581 45.301 C 25.820 45.880, 25.763 49.641, 27.465 52.932 C 28.771 55.457, 29.662 56, 32.503 56 C 37.730 56, 39.441 52.749, 38.706 44.209 C 37.984 35.825, 34.969 22, 33.863 22 C 33.407 22, 31.901 24.235, 30.517 26.967" stroke="none" fill="black" fill-rule="evenodd"></path></symbol><symbol viewBox="0 0 60 60" id="MyFont-k"><path d="M 22.527 19.956 C 22.202 20.482, 22.485 27.907, 23.155 36.456 C 24.035 47.683, 24.725 52, 25.639 52 C 26.485 52, 27.003 50.019, 27.202 46.019 L 27.500 40.039 31.891 43.519 C 36.868 47.465, 39 47.909, 39 45 C 39 43.900, 38.663 42.996, 38.250 42.990 C 37.837 42.985, 35.612 41.479, 33.304 39.645 L 29.108 36.308 34.054 29.524 C 36.774 25.793, 39 22.091, 39 21.297 C 39 18.378, 36.022 20.673, 31.197 27.310 L 26.246 34.120 25.538 26.560 C 24.881 19.551, 23.988 17.592, 22.527 19.956" stroke="none" fill="black" fill-rule="evenodd"></path></symbol><symbol viewBox="0 0 60 60" id="MyFont-l"><path d="M 23.883 17.750 C 22.881 20.328, 23.095 25.954, 24.661 38.294 C 25.161 42.234, 25.771 43.347, 28.085 44.544 C 31.537 46.329, 36.004 46.446, 35.990 44.750 C 35.984 44.063, 34.234 42.767, 32.100 41.871 C 28.463 40.344, 28.174 39.909, 27.466 34.871 C 27.050 31.917, 26.724 26.238, 26.741 22.250 C 26.772 14.708, 25.712 13.039, 23.883 17.750" stroke="none" fill="black" fill-rule="evenodd"></path></symbol><symbol viewBox="0 0 60 60" id="MyFont-m"><path d="M 37.317 30.231 C 36.180 31.479, 34.728 33.513, 34.090 34.750 C 32.386 38.054, 31 37.494, 31 33.500 C 31 28.784, 27.792 28.644, 25.276 33.250 L 23.500 36.500 23.186 32.688 C 22.777 27.723, 20.610 28.332, 20.177 33.533 C 19.653 39.843, 20.792 44, 23.045 44 C 24.264 44, 25 43.319, 25 42.191 C 25 41.196, 25.638 39.509, 26.419 38.442 C 27.774 36.589, 27.867 36.636, 28.502 39.501 C 29.632 44.596, 29.879 45, 31.860 45 C 33.080 45, 34.014 44.081, 34.414 42.488 C 34.760 41.106, 35.913 38.547, 36.975 36.800 L 38.907 33.624 39.953 36.377 C 40.529 37.891, 41 40.226, 41 41.565 C 41 43.063, 41.577 44, 42.500 44 C 45.344 44, 43.352 29.284, 40.373 28.291 C 39.830 28.110, 38.454 28.983, 37.317 30.231" stroke="none" fill="black" fill-rule="evenodd"></path></symbol><symbol viewBox="0 0 60 60" id="MyFont-n"><path d="M 25.151 25.607 C 23.889 26.491, 22.467 28.178, 21.992 29.357 C 21.199 31.320, 21.121 31.262, 21.063 28.667 C 21.023 26.865, 20.545 25.984, 19.750 26.248 C 18.885 26.535, 18.412 29.797, 18.215 36.831 C 17.974 45.430, 18.167 47, 19.465 47 C 20.341 47, 21 46.128, 21 44.968 C 21 41.245, 25.073 30.524, 27.161 28.750 C 30.283 26.098, 31.677 26.593, 34.458 31.338 C 36.371 34.602, 37 37.077, 37 41.338 C 37 45.704, 37.343 47, 38.500 47 C 39.681 47, 40 45.606, 40 40.450 C 40 33.983, 38.562 29.556, 35.224 25.750 C 33.304 23.560, 28.178 23.487, 25.151 25.607" stroke="none" fill="black" fill-rule="evenodd"></path></symbol><symbol viewBox="0 0 60 60" id="MyFont-o"><path d="M 33.282 23.326 C 27.622 25.391, 26.489 27.320, 26.597 34.708 C 26.680 40.318, 27.042 41.616, 28.958 43.167 C 33.517 46.859, 43.411 44.445, 46.305 38.936 C 48.456 34.839, 48.119 28.637, 45.529 24.684 C 44.132 22.553, 43.021 22.016, 40.135 22.076 C 38.136 22.118, 35.052 22.680, 33.282 23.326 M 35 26.473 C 30.794 27.896, 28.751 31.507, 29.640 35.951 C 30.571 40.604, 33.575 42.250, 38.422 40.763 C 41.276 39.887, 42.626 38.747, 43.617 36.375 C 45.292 32.365, 43.786 27, 40.986 27 C 39.985 27, 39.017 26.615, 38.833 26.145 C 38.650 25.674, 36.925 25.822, 35 26.473" stroke="none" fill="black" fill-rule="evenodd"></path></symbol><symbol viewBox="0 0 60 60" id="MyFont-p"><path d="M 26.200 22.200 C 24.863 23.537, 24.602 37.229, 25.654 50.750 C 26.139 56.975, 26.651 59, 27.739 59 C 28.925 59, 29.121 57.158, 28.841 48.648 L 28.500 38.295 34.500 36.388 C 39.977 34.647, 40.526 34.213, 40.801 31.403 C 41.392 25.362, 30.134 18.266, 26.200 22.200 M 28.406 25.386 C 28.113 26.148, 28.015 28.567, 28.187 30.762 L 28.500 34.753 33.296 33.216 L 38.093 31.679 34.343 27.840 C 30.287 23.685, 29.226 23.247, 28.406 25.386" stroke="none" fill="black" fill-rule="evenodd"></path></symbol><symbol viewBox="0 0 60 60" id="MyFont-q"><path d="M 37.667 14.667 C 37.300 15.033, 37 16.383, 37 17.667 C 37 19.853, 36.620 20, 30.984 20 C 25.075 20, 24.937 20.064, 23.273 23.554 C 22.012 26.197, 21.850 27.542, 22.641 28.804 C 23.920 30.844, 30.901 31.579, 35.101 30.114 L 38 29.104 38 39.927 C 38 52.268, 38.697 57, 40.517 57 C 41.213 57, 42.093 55.765, 42.472 54.255 C 42.851 52.745, 44.700 49.631, 46.581 47.336 C 48.461 45.041, 50 42.677, 50 42.082 C 50 39.818, 47.025 41.146, 44.073 44.728 L 41 48.456 40.995 40.978 C 40.987 30.082, 39.808 14, 39.016 14 C 38.640 14, 38.033 14.300, 37.667 14.667 M 26.574 24.667 C 26.222 25.584, 26.366 26.766, 26.893 27.293 C 28.395 28.795, 34.853 27.143, 36.023 24.957 C 36.997 23.137, 36.724 23, 32.142 23 C 28.464 23, 27.052 23.423, 26.574 24.667" stroke="none" fill="black" fill-rule="evenodd"></path></symbol><symbol viewBox="0 0 60 60" id="MyFont-r"><path d="M 30.432 21.233 C 28.871 22.460, 26.897 23.473, 26.047 23.483 C 24.830 23.496, 24.433 24.995, 24.186 30.500 C 23.770 39.798, 24.720 46, 26.561 46 C 27.686 46, 28 44.352, 28 38.450 C 28 27.066, 31.691 21.589, 38.608 22.711 C 41.221 23.135, 42 22.912, 42 21.738 C 42 18.350, 34.512 18.023, 30.432 21.233" stroke="none" fill="black" fill-rule="evenodd"></path></symbol><symbol viewBox="0 0 60 60" id="MyFont-s"><path d="M 23.270 21.703 C 20.620 22.215, 17 26.505, 17 29.135 C 17 32.732, 20.579 35, 26.257 35 C 32.358 35, 38.012 36.415, 39.164 38.232 C 40.656 40.582, 40.015 43.637, 37.543 45.959 C 34.484 48.834, 29.876 48.213, 25.885 44.390 C 23.289 41.903, 19.936 41.442, 19.410 43.500 C 19.270 44.050, 20.745 45.825, 22.687 47.444 C 25.471 49.765, 27.413 50.468, 31.859 50.764 C 36.804 51.093, 37.829 50.827, 40.161 48.611 C 43.461 45.477, 44.585 40.826, 42.979 36.949 C 41.587 33.590, 37.351 32.014, 29.684 32.006 C 22.024 31.997, 18.731 29.128, 22.649 25.876 C 23.817 24.907, 26.733 24.583, 32.649 24.765 C 39.175 24.966, 41 24.724, 41 23.654 C 41 21.743, 29.571 20.486, 23.270 21.703" stroke="none" fill="black" fill-rule="evenodd"></path></symbol><symbol viewBox="0 0 60 60" id="MyFont-t"><path d="M 34.750 23.861 C 31.476 27.201, 31.331 28, 34 28 C 35.706 28, 36 28.667, 36 32.532 C 36 38.623, 38.278 43.775, 41.517 45.006 C 45.713 46.602, 53 46.281, 53 44.500 C 53 43.447, 51.937 43, 49.434 43 C 47.473 43, 44.960 42.514, 43.850 41.920 C 41.322 40.567, 39 35.149, 39 30.604 L 39 27.145 44.500 27.712 C 49.070 28.184, 50 28.015, 50 26.712 C 50 25.561, 48.536 24.961, 44.500 24.457 C 40.812 23.996, 39 23.313, 39 22.385 C 39 20.323, 37.815 20.735, 34.750 23.861" stroke="none" fill="black" fill-rule="evenodd"></path></symbol><symbol viewBox="0 0 60 60" id="MyFont-u"><path d="M 22.667 20.667 C 21.520 21.813, 21.977 36.259, 23.325 41.500 C 24.527 46.171, 24.901 46.593, 29.019 47.912 C 34.625 49.707, 43.583 48.144, 46.250 44.904 L 48 42.778 48 44.955 C 48 48.249, 49.837 51, 52.035 51 C 54.203 51, 54.636 49.036, 52.861 47.261 C 51.364 45.764, 49.119 33.042, 49.053 25.677 C 49.007 20.679, 48.752 19.903, 47.250 20.204 C 45.723 20.510, 45.543 21.578, 45.839 28.597 C 46.307 39.707, 44.738 43.325, 38.807 44.818 C 32.922 46.300, 28.877 45.136, 27.053 41.435 C 26.241 39.787, 25.421 34.444, 25.184 29.250 C 24.789 20.604, 24.322 19.011, 22.667 20.667" stroke="none" fill="black" fill-rule="evenodd"></path></symbol><symbol viewBox="0 0 60 60" id="MyFont-v"><path d="M 43.691 15.750 C 43.456 16.163, 42.217 21.787, 40.937 28.250 C 39.658 34.713, 38.334 40, 37.995 40 C 37.656 40, 36.499 38.313, 35.424 36.250 C 32.427 30.501, 25.824 21, 24.827 21 C 22.494 21, 23.203 24.248, 26.468 28.526 C 28.451 31.124, 31.642 36.599, 33.559 40.694 C 38.591 51.442, 39.708 50.719, 43.137 34.497 C 46.040 20.763, 46.608 15, 45.059 15 C 44.541 15, 43.926 15.338, 43.691 15.750" stroke="none" fill="black" fill-rule="evenodd"></path></symbol><symbol viewBox="0 0 60 60" id="MyFont-w"><path d="M 7.412 25.368 C 7.123 26.121, 8.878 31.183, 11.312 36.618 C 13.746 42.053, 16.051 47.513, 16.436 48.750 C 17.411 51.889, 21 51.791, 21 48.625 C 21 47.319, 21.279 44.853, 21.621 43.146 L 22.242 40.042 25.729 43.529 C 29.174 46.974, 33.452 48.881, 34.774 47.560 C 35.148 47.186, 35.630 42.126, 35.845 36.317 C 36.164 27.704, 35.983 25.838, 34.868 26.207 C 33.913 26.523, 33.410 28.898, 33.201 34.079 C 33.037 38.159, 32.479 41.921, 31.961 42.439 C 31.374 43.026, 29.275 41.557, 26.368 38.524 C 21.999 33.964, 21.633 33.781, 20.358 35.525 C 19.611 36.547, 19 38.421, 19 39.691 C 19 44.098, 17.182 41.952, 13.351 33.023 C 9.540 24.139, 8.432 22.711, 7.412 25.368" stroke="none" fill="black" fill-rule="evenodd"></path></symbol><symbol viewBox="0 0 60 60" id="MyFont-x"><path d="M 42.420 24.348 C 42.136 25.089, 40.606 26.654, 39.021 27.826 C 36.301 29.837, 35.935 29.871, 32.467 28.422 C 30.447 27.578, 27.637 27.025, 26.224 27.194 C 23.193 27.555, 21.924 30, 24.767 30 C 27.509 30, 33 32.033, 33 33.048 C 33 33.516, 31.650 35.900, 30 38.345 C 28.350 40.790, 27 43.512, 27 44.395 C 27 47.248, 29.573 46.101, 31.812 42.250 C 35.874 35.263, 36.554 34.692, 39.168 36.080 C 41.516 37.326, 43.632 39.790, 45.525 43.483 C 46.746 45.863, 50 46.768, 50 44.727 C 50 41.983, 46.810 36.957, 43.434 34.382 L 40.023 31.781 43.012 28.989 C 44.655 27.454, 46 25.478, 46 24.599 C 46 22.660, 43.145 22.460, 42.420 24.348" stroke="none" fill="black" fill-rule="evenodd"></path></symbol><symbol viewBox="0 0 60 60" id="MyFont-y"><path d="M 39.674 27.750 C 39.430 28.163, 38.914 30.413, 38.527 32.750 C 38.141 35.087, 37.579 37, 37.280 37 C 35.816 37, 29.859 32.579, 28.111 30.195 C 26.616 28.157, 25.850 27.780, 24.968 28.649 C 23.115 30.475, 24.762 33.651, 29.302 37.003 C 32.628 39.458, 34.330 40.043, 37.500 39.820 L 41.500 39.539 41.500 45.020 C 41.500 50.280, 41.360 50.571, 38 52.264 C 34.568 53.994, 34.465 53.986, 32.707 51.850 C 31.440 50.311, 31.102 48.811, 31.556 46.743 C 32.101 44.262, 31.917 43.868, 30.350 44.166 C 27.797 44.650, 27.285 51.260, 29.536 54.695 C 30.993 56.918, 31.709 57.168, 35.264 56.691 C 37.499 56.392, 40.491 55.280, 41.913 54.221 C 44.148 52.558, 44.541 51.429, 44.803 45.934 C 45.234 36.892, 41.693 24.337, 39.674 27.750" stroke="none" fill="black" fill-rule="evenodd"></path></symbol></svg>