<svg xmlns="http://www.w3.org/2000/svg" xmlns:xlink="http://www.w3.org/1999/xlink" width="0" height="0" style="display:none;"><symbol viewBox="0 0 22 18" id="MyFont-a">
	<path d="M 3.058 2.438 C 1.657 3.929, 0.575 6.593, 0.270 9.301 C -0.160 13.112, 0.095 13.953, 2.108 15.363 C 5.242 17.558, 9.162 17.429, 11.720 15.046 C 13.781 13.126, 13.841 13.125, 15.159 15.001 C 15.896 16.050, 17.737 17.203, 19.250 17.563 C 21.587 18.119, 22 17.900, 22 16.108 C 22 14.949, 21.385 14, 20.633 14 C 18.562 14, 14 6.449, 14 3.021 C 14 0.125, 13.821 0, 9.674 0 C 6.383 0, 4.801 0.583, 3.058 2.438 M 5.807 4.713 C 2.939 7.977, 2.709 10.683, 5.153 12.395 C 7.191 13.822, 7.550 13.812, 9.242 12.281 C 10.530 11.115, 11.006 9.520, 10.799 7.059 C 10.456 2.995, 8.234 1.950, 5.807 4.713" stroke="none" fill="black" fill-rule="evenodd"></path>
</symbol><symbol viewBox="0 0 20 32" id="MyFont-b">
	<path d="M 0.321 1.605 C -0.018 2.488, 0.222 7.412, 0.853 12.547 C 1.484 17.682, 2 23.619, 2 25.742 C 2 30.424, 3.398 32, 7.551 32 C 17.787 32, 22.743 25.012, 18.011 17.250 C 16.217 14.308, 15.574 14, 11.215 14 C 8.567 14, 5.896 14.504, 5.279 15.121 C 4.452 15.948, 3.973 14.118, 3.450 8.121 C 2.776 0.391, 1.670 -1.911, 0.321 1.605 M 6.449 20.468 C 4.622 24.840, 4.625 26.444, 6.461 27.968 C 8.347 29.533, 14.488 27.668, 15.569 25.202 C 17.196 21.492, 14.307 17, 10.294 17 C 8.505 17, 7.531 17.879, 6.449 20.468" stroke="none" fill="black" fill-rule="evenodd"></path>
</symbol><symbol viewBox="0 0 24 23" id="MyFont-c">
	<path d="M 9.276 1.654 C 2.989 3.880, -0.172 8.140, 0.201 13.885 C 0.483 18.239, 0.754 18.631, 5 20.823 C 8.688 22.726, 10.508 23.048, 15.083 22.605 C 22.031 21.934, 24 21.200, 24 19.282 C 24 17.803, 21.935 17.873, 14.500 19.602 C 11.403 20.322, 3.559 15.916, 3.180 13.243 C 2.697 9.847, 7.612 5.540, 13.772 3.962 C 16.736 3.202, 19 2.054, 19 1.311 C 19 -0.407, 14.664 -0.254, 9.276 1.654" stroke="none" fill="black" fill-rule="evenodd"></path>
</symbol><symbol viewBox="0 0 32 33" id="MyFont-d">
	<path d="M 17.361 1.502 C 17.044 2.328, 17.073 4.155, 17.426 5.562 C 18.460 9.680, 17.070 15.149, 15.133 14.584 C 8.159 12.547, 6.088 12.758, 3.029 15.817 C 0.445 18.401, -0 19.599, -0 23.972 C -0 29.033, 0.054 29.122, 4.250 31.027 C 8.797 33.091, 17.470 33.667, 18.516 31.974 C 18.865 31.410, 19.403 28.497, 19.712 25.500 C 20.021 22.503, 20.620 20.265, 21.042 20.526 C 21.464 20.787, 23.206 23.475, 24.913 26.500 C 27.050 30.286, 28.638 32, 30.009 32 C 32.337 32, 32.587 30.315, 30.590 28.079 C 27.335 24.434, 23.093 15.056, 21.962 9 C 21.293 5.425, 20.593 1.938, 20.405 1.250 C 19.933 -0.475, 18.060 -0.320, 17.361 1.502 M 4.557 19.223 C 1.847 23.091, 2.575 25.742, 6.960 27.980 C 12.891 31.006, 15.613 30.686, 16.375 26.875 C 17.593 20.784, 17.152 18.274, 14.750 17.630 C 9.988 16.354, 6.145 16.954, 4.557 19.223" stroke="none" fill="black" fill-rule="evenodd"></path>
</symbol><symbol viewBox="0 0 22 21" id="MyFont-e">
	<path d="M 5.896 1.331 C 0.905 3.571, -0.001 4.963, 0.015 10.372 C 0.034 16.601, 0.550 17.496, 5.253 19.461 C 9.934 21.417, 12.953 21.403, 17.953 19.402 C 22.383 17.630, 23.497 14.850, 22.741 7.456 C 22.397 4.096, 22.309 4.329, 22.158 9 L 21.980 14.500 16.925 16.175 C 9.313 18.698, 3 16.039, 3 10.309 C 3 8.117, 3.355 8, 10 8 C 16.408 8, 17 7.825, 17 5.934 C 17 0.380, 12.329 -1.556, 5.896 1.331 M 9 4 C 7.835 4.753, 8.128 4.973, 10.309 4.985 C 11.930 4.994, 12.857 4.577, 12.500 4 C 11.733 2.758, 10.921 2.758, 9 4 M 0.310 10.500 C 0.315 13.800, 0.502 15.029, 0.725 13.232 C 0.947 11.435, 0.943 8.735, 0.715 7.232 C 0.486 5.729, 0.304 7.200, 0.310 10.500" stroke="none" fill="black" fill-rule="evenodd"></path>
</symbol><symbol viewBox="0 0 26 36" id="MyFont-f">
	<path d="M 9.589 3.077 C 7.448 5.621, 7 7.168, 7 12.013 C 7 17.863, 6.994 17.874, 3.827 18.187 C -0.757 18.639, -1.102 21, 3.417 21 L 7 21 7.014 26.250 C 7.031 32.889, 7.857 36, 9.604 36 C 10.699 36, 10.847 34.494, 10.341 28.500 L 9.707 21 12.853 21 C 14.984 21, 16 20.516, 16 19.500 C 16 18.500, 15 18, 13 18 C 10.071 18, 10 17.883, 10 13.056 C 10 9.308, 10.569 7.450, 12.349 5.380 L 14.699 2.649 17.919 4.942 C 21.579 7.548, 23.135 10.769, 22.291 13.994 C 21.827 15.770, 22.084 16.127, 23.607 15.820 C 25.106 15.518, 25.485 14.595, 25.426 11.391 C 25.251 1.769, 15.151 -3.533, 9.589 3.077" stroke="none" fill="black" fill-rule="evenodd"></path>
</symbol><symbol viewBox="0 -20 25 63" id="MyFont-g">
	<path d="M 12.302 1.953 C 11.884 3.551, 10.764 3.960, 6.146 4.203 L 0.500 4.500 0.186 9.467 C -0.204 15.654, 1.315 17, 8.691 17 C 13.625 17, 14 17.169, 14 19.394 C 14 21.252, 12.938 22.315, 9.250 24.144 C 3.373 27.059, 2.804 29.707, 6.377 37.512 C 8.472 42.087, 9.317 43, 11.459 43 C 15.398 43, 17.992 37.972, 17.996 30.329 C 18 24.257, 18.049 24.148, 21.068 23.485 C 23.966 22.848, 25.928 20.595, 24.675 19.341 C 24.360 19.026, 22.764 19.235, 21.128 19.806 C 17.482 21.077, 17.433 20.976, 15.831 8.947 C 14.689 0.367, 13.390 -2.207, 12.302 1.953 M 3 9.465 C 3 12.263, 5.940 14.291, 9.302 13.813 C 10.969 13.575, 11.576 12.716, 11.813 10.250 C 12.126 7.012, 12.109 7, 7.563 7 C 3.380 7, 3 7.205, 3 9.465 M 9.750 27.572 C 7.010 29.058, 7.006 29.078, 8.591 32.782 C 9.466 34.827, 10.414 37.063, 10.698 37.750 C 12.128 41.213, 15 36.007, 15 29.953 C 15 25.594, 14.127 25.198, 9.750 27.572" stroke="none" fill="black" fill-rule="evenodd"></path>
</symbol><symbol viewBox="0 0 16 35" id="MyFont-h">
	<path d="M 1.375 1.202 C 0.967 1.863, 0.432 9.738, 0.186 18.702 C -0.200 32.807, -0.055 35, 1.259 35 C 2.179 35, 3.020 33.720, 3.392 31.750 C 3.731 29.962, 5.423 26.989, 7.154 25.143 C 10.819 21.234, 11.407 21.748, 12.490 29.804 C 13.051 33.979, 13.553 35.040, 14.851 34.791 C 16.285 34.516, 16.509 32.653, 16.569 20.488 C 16.636 6.977, 16.619 6.858, 16.069 17 C 15.524 27.064, 15.465 27.282, 14.656 22.250 C 14.192 19.362, 13.292 17.003, 12.656 17.007 C 11.075 17.016, 6.308 20.240, 4.417 22.580 C 3.001 24.331, 2.917 23.424, 3.461 12.250 C 4.021 0.727, 3.471 -2.188, 1.375 1.202 M 0.395 21.500 C 0.396 29.200, 0.553 32.218, 0.743 28.206 C 0.934 24.195, 0.932 17.895, 0.741 14.206 C 0.549 10.518, 0.393 13.800, 0.395 21.500" stroke="none" fill="black" fill-rule="evenodd"></path>
</symbol><symbol viewBox="0 0 5 31" id="MyFont-i">
	<path d="M 1.176 1.224 C -0.457 2.857, -0.298 6, 1.418 6 C 4.242 6, 6 4.744, 6 2.726 C 6 1.594, 5.704 0.963, 5.342 1.325 C 4.980 1.687, 4.159 1.547, 3.518 1.015 C 2.754 0.381, 1.947 0.453, 1.176 1.224 M 0.158 4 C 0.158 5.375, 0.385 5.938, 0.662 5.250 C 0.940 4.563, 0.940 3.438, 0.662 2.750 C 0.385 2.063, 0.158 2.625, 0.158 4 M 2.567 10.187 C 2.337 10.909, 1.953 15.887, 1.714 21.250 C 1.384 28.630, 1.583 31, 2.532 31 C 3.222 31, 4.059 30.288, 4.393 29.418 C 5.405 26.780, 5.072 10.162, 3.993 9.496 C 3.439 9.153, 2.798 9.464, 2.567 10.187" stroke="none" fill="black" fill-rule="evenodd"></path>
</symbol><symbol viewBox="0 -20 13 62" id="MyFont-j">
	<path d="M 6.160 1.240 C 4.355 3.045, 4.792 5, 7 5 C 8.313 5, 9 4.333, 9 3.059 C 9 0.596, 7.661 -0.261, 6.160 1.240 M 4.578 12.845 C 1.481 18.958, 1.477 19, 4 19 C 5.100 19, 6 18.550, 6 18 C 6 17.450, 6.385 17, 6.855 17 C 7.325 17, 8.280 20.977, 8.977 25.838 C 9.942 32.573, 9.968 35.191, 9.087 36.838 C 7.334 40.112, 5.395 39.445, 3.596 34.949 C 1.965 30.871, -0 30.412, -0 34.109 C 0 35.204, 0.700 37.453, 1.555 39.107 C 2.913 41.732, 3.574 42.075, 6.756 41.807 C 9.669 41.562, 10.788 40.836, 12.324 38.198 C 14.237 34.909, 14.235 34.844, 11.672 22.298 C 10.257 15.369, 8.662 9.262, 8.128 8.728 C 7.500 8.100, 6.247 9.553, 4.578 12.845 M 0.195 34.500 C 0.215 36.150, 0.439 36.704, 0.693 35.731 C 0.947 34.758, 0.930 33.408, 0.656 32.731 C 0.382 32.054, 0.175 32.850, 0.195 34.500" stroke="none" fill="black" fill-rule="evenodd"></path>
</symbol><symbol viewBox="0 0 17 33" id="MyFont-k">
	<path d="M 0.527 0.956 C 0.202 1.482, 0.485 8.907, 1.155 17.456 C 2.035 28.683, 2.725 33, 3.639 33 C 4.485 33, 5.003 31.019, 5.202 27.019 L 5.500 21.039 9.891 24.519 C 14.868 28.465, 17 28.909, 17 26 C 17 24.900, 16.663 23.996, 16.250 23.990 C 15.838 23.985, 13.612 22.479, 11.304 20.645 L 7.108 17.308 11.981 10.625 C 16.228 4.800, 16.909 4.234, 17.290 6.221 C 17.534 7.488, 17.788 6.627, 17.864 4.282 C 17.985 0.518, 17.794 0.142, 16.083 0.782 C 15.029 1.177, 11.935 4.564, 9.206 8.310 L 4.246 15.120 3.538 7.560 C 2.881 0.551, 1.988 -1.408, 0.527 0.956 M 0.272 5 C 0.272 7.475, 0.467 8.488, 0.706 7.250 C 0.944 6.012, 0.944 3.988, 0.706 2.750 C 0.467 1.512, 0.272 2.525, 0.272 5" stroke="none" fill="black" fill-rule="evenodd"></path>
</symbol><symbol viewBox="0 0 13 31" id="MyFont-l">
	<path d="M 0.883 2.750 C -0.119 5.328, 0.095 10.954, 1.661 23.294 C 2.161 27.234, 2.771 28.347, 5.085 29.544 C 8.537 31.329, 13.004 31.446, 12.990 29.750 C 12.984 29.063, 11.234 27.767, 9.100 26.871 C 5.463 25.344, 5.174 24.909, 4.466 19.871 C 4.050 16.917, 3.724 11.238, 3.741 7.250 C 3.772 -0.292, 2.712 -1.961, 0.883 2.750" stroke="none" fill="black" fill-rule="evenodd"></path>
</symbol><symbol viewBox="0 0 24 17" id="MyFont-m">
	<path d="M 17.288 2.262 C 16.167 3.493, 14.728 5.512, 14.090 6.750 C 12.451 9.928, 11.179 9.543, 10.813 5.758 C 10.375 1.227, 7.617 0.939, 5.341 5.188 L 3.567 8.500 3.034 5.211 C 2.315 0.781, 0.577 1.070, 0.177 5.685 C -0.354 11.828, 0.806 16, 3.045 16 C 4.264 16, 5 15.319, 5 14.191 C 5 13.196, 5.638 11.509, 6.419 10.442 C 7.774 8.589, 7.867 8.636, 8.502 11.501 C 9.632 16.596, 9.879 17, 11.860 17 C 13.080 17, 14.014 16.081, 14.414 14.488 C 14.760 13.106, 15.913 10.547, 16.975 8.800 L 18.907 5.624 19.953 8.377 C 20.529 9.891, 21 12.226, 21 13.565 C 21 17.115, 23.635 16.577, 24.375 12.875 C 24.719 11.156, 24.936 7.669, 24.858 5.125 L 24.716 0.500 24.069 4.500 L 23.423 8.500 22.647 5.319 C 21.488 0.565, 19.741 -0.431, 17.288 2.262 M 0.310 7.500 C 0.315 10.800, 0.502 12.029, 0.725 10.232 C 0.947 8.435, 0.943 5.735, 0.715 4.232 C 0.486 2.729, 0.304 4.200, 0.310 7.500" stroke="none" fill="black" fill-rule="evenodd"></path>
</symbol><symbol viewBox="0 0 22 23" id="MyFont-n">
	<path d="M 7.151 1.607 C 5.889 2.491, 4.467 4.178, 3.992 5.357 C 3.199 7.320, 3.121 7.262, 3.063 4.667 C 3.023 2.865, 2.545 1.984, 1.750 2.248 C 0.885 2.535, 0.412 5.797, 0.215 12.831 C -0.026 21.430, 0.167 23, 1.465 23 C 2.341 23, 3 22.128, 3 20.968 C 3 17.245, 7.073 6.524, 9.161 4.750 C 12.283 2.098, 13.677 2.593, 16.458 7.338 C 18.381 10.619, 19 13.072, 19 17.411 C 19 22.335, 19.248 23.099, 20.750 22.812 C 22.274 22.520, 22.516 21.123, 22.627 11.988 C 22.703 5.680, 22.492 3.094, 22.096 5.500 C 21.538 8.893, 21.323 9.171, 20.678 7.332 C 20.260 6.140, 19.003 4.003, 17.886 2.582 C 15.496 -0.456, 10.716 -0.890, 7.151 1.607 M 0.370 13 C 0.370 18.775, 0.535 21.138, 0.737 18.250 C 0.939 15.363, 0.939 10.638, 0.737 7.750 C 0.535 4.863, 0.370 7.225, 0.370 13" stroke="none" fill="black" fill-rule="evenodd"></path>
</symbol><symbol viewBox="0 0 22 23" id="MyFont-o">
	<path d="M 7.282 1.302 C 1.610 3.414, 0.489 5.326, 0.597 12.708 C 0.680 18.318, 1.042 19.616, 2.958 21.167 C 7.279 24.666, 17.418 22.434, 20 17.415 C 20.825 15.812, 21.837 14.350, 22.250 14.167 C 22.663 13.983, 23 12.333, 23 10.500 C 23 8.667, 22.663 7.017, 22.250 6.833 C 21.837 6.650, 20.744 5.150, 19.820 3.500 C 18.456 1.063, 17.423 0.463, 14.320 0.302 C 12.219 0.194, 9.052 0.644, 7.282 1.302 M 9 4.473 C 4.794 5.896, 2.751 9.507, 3.640 13.951 C 4.571 18.604, 7.575 20.250, 12.422 18.763 C 15.276 17.887, 16.626 16.747, 17.617 14.375 C 19.292 10.365, 17.786 5, 14.986 5 C 13.985 5, 13.017 4.615, 12.833 4.145 C 12.650 3.674, 10.925 3.822, 9 4.473 M 0.252 11.500 C 0.263 13.700, 0.468 14.482, 0.707 13.238 C 0.946 11.994, 0.937 10.194, 0.687 9.238 C 0.437 8.282, 0.241 9.300, 0.252 11.500" stroke="none" fill="black" fill-rule="evenodd"></path>
</symbol><symbol viewBox="0 -20 16 58" id="MyFont-p">
	<path d="M 1.200 1.200 C -0.137 2.537, -0.398 16.229, 0.654 29.750 C 1.139 35.975, 1.651 38, 2.739 38 C 3.925 38, 4.121 36.160, 3.841 27.661 L 3.500 17.323 9.707 15.299 L 15.915 13.276 16.262 19.888 C 16.452 23.525, 16.624 20.650, 16.644 13.500 C 16.664 6.350, 16.497 1.987, 16.272 3.805 L 15.865 7.111 11.930 3.555 C 7.842 -0.138, 3.493 -1.093, 1.200 1.200 M 0.389 14.500 C 0.390 21.650, 0.550 24.444, 0.742 20.708 C 0.935 16.973, 0.934 11.123, 0.739 7.708 C 0.545 4.294, 0.387 7.350, 0.389 14.500 M 3.406 4.386 C 3.113 5.148, 3.015 7.567, 3.187 9.762 L 3.500 13.753 8.296 12.216 L 13.093 10.679 9.343 6.840 C 5.287 2.685, 4.226 2.247, 3.406 4.386" stroke="none" fill="black" fill-rule="evenodd"></path>
</symbol><symbol viewBox="0 -20 28 63" id="MyFont-q">
	<path d="M 15.667 0.667 C 15.300 1.033, 15 2.383, 15 3.667 C 15 5.853, 14.620 6, 8.984 6 C 3.075 6, 2.937 6.064, 1.273 9.554 C 0.012 12.197, -0.150 13.542, 0.641 14.804 C 1.920 16.844, 8.901 17.579, 13.101 16.114 L 16 15.104 16 25.927 C 16 38.268, 16.697 43, 18.517 43 C 19.213 43, 20.093 41.765, 20.472 40.255 C 20.851 38.745, 22.700 35.631, 24.581 33.336 C 26.461 31.041, 28 28.677, 28 28.082 C 28 25.818, 25.025 27.146, 22.073 30.728 L 19 34.456 18.995 26.978 C 18.987 16.082, 17.808 0, 17.016 0 C 16.640 0, 16.033 0.300, 15.667 0.667 M 4.574 10.667 C 4.222 11.584, 4.366 12.766, 4.893 13.293 C 6.395 14.795, 12.853 13.143, 14.023 10.957 C 14.997 9.137, 14.724 9, 10.142 9 C 6.464 9, 5.052 9.423, 4.574 10.667" stroke="none" fill="black" fill-rule="evenodd"></path>
</symbol><symbol viewBox="0 0 18 27" id="MyFont-r">
	<path d="M 6.432 2.233 C 4.871 3.460, 2.897 4.473, 2.047 4.483 C 0.830 4.496, 0.433 5.995, 0.186 11.500 C -0.230 20.798, 0.720 27, 2.561 27 C 3.689 27, 4.001 25.324, 4.004 19.250 C 4.009 7.914, 7.640 2.653, 14.714 3.728 L 17.928 4.216 18.296 12.858 L 18.664 21.500 18.582 11.712 C 18.519 4.165, 18.157 1.708, 17 0.978 C 14.380 -0.676, 9.374 -0.082, 6.432 2.233 M 0.360 14 C 0.360 19.225, 0.529 21.363, 0.735 18.750 C 0.941 16.137, 0.941 11.862, 0.735 9.250 C 0.529 6.637, 0.360 8.775, 0.360 14" stroke="none" fill="black" fill-rule="evenodd"></path>
</symbol><symbol viewBox="0 0 27 30" id="MyFont-s">
	<path d="M 6.270 0.703 C 3.620 1.215, -0 5.505, -0 8.135 C 0 11.732, 3.579 14, 9.257 14 C 15.358 14, 21.012 15.415, 22.164 17.232 C 23.656 19.582, 23.015 22.637, 20.543 24.959 C 17.484 27.834, 12.876 27.213, 8.885 23.390 C 6.289 20.903, 2.936 20.442, 2.410 22.500 C 2.270 23.050, 3.745 24.825, 5.687 26.444 C 8.471 28.765, 10.413 29.468, 14.859 29.764 C 19.804 30.093, 20.829 29.827, 23.161 27.611 C 26.461 24.477, 27.585 19.826, 25.979 15.949 C 24.587 12.590, 20.351 11.014, 12.684 11.006 C 5.024 10.997, 1.731 8.128, 5.649 4.876 C 6.817 3.907, 9.733 3.583, 15.649 3.765 C 22.175 3.966, 24 3.724, 24 2.654 C 24 0.743, 12.571 -0.514, 6.270 0.703" stroke="none" fill="black" fill-rule="evenodd"></path>
</symbol><symbol viewBox="0 0 21 25" id="MyFont-t">
	<path d="M 2.750 2.861 C -0.524 6.201, -0.669 7, 2 7 C 3.706 7, 4 7.667, 4 11.532 C 4 17.623, 6.278 22.775, 9.517 24.006 C 13.713 25.602, 21 25.281, 21 23.500 C 21 22.447, 19.937 22, 17.434 22 C 15.473 22, 12.960 21.514, 11.850 20.920 C 9.322 19.567, 7 14.149, 7 9.604 L 7 6.145 12.500 6.712 C 17.070 7.184, 18 7.015, 18 5.712 C 18 4.561, 16.536 3.961, 12.500 3.457 C 8.812 2.996, 7 2.313, 7 1.385 C 7 -0.677, 5.815 -0.265, 2.750 2.861" stroke="none" fill="black" fill-rule="evenodd"></path>
</symbol><symbol viewBox="0 0 32 31" id="MyFont-u">
	<path d="M 0.667 0.667 C -0.480 1.813, -0.023 16.259, 1.325 21.500 C 2.527 26.171, 2.901 26.593, 7.019 27.912 C 12.625 29.707, 21.583 28.144, 24.250 24.904 L 26 22.778 26 24.955 C 26 28.249, 27.837 31, 30.035 31 C 32.203 31, 32.636 29.036, 30.861 27.261 C 29.364 25.764, 27.119 13.042, 27.053 5.677 C 27.007 0.679, 26.752 -0.097, 25.250 0.204 C 23.723 0.510, 23.543 1.578, 23.839 8.597 C 24.307 19.707, 22.738 23.325, 16.807 24.818 C 10.922 26.300, 6.877 25.136, 5.053 21.435 C 4.241 19.787, 3.421 14.444, 3.184 9.250 C 2.789 0.604, 2.322 -0.989, 0.667 0.667" stroke="none" fill="black" fill-rule="evenodd"></path>
</symbol><symbol viewBox="0 0 23 33" id="MyFont-v">
	<path d="M 20.691 0.750 C 20.456 1.163, 19.217 6.787, 17.937 13.250 C 16.658 19.713, 15.334 25, 14.995 25 C 14.656 25, 13.499 23.313, 12.424 21.250 C 9.427 15.501, 2.824 6, 1.827 6 C -0.506 6, 0.203 9.248, 3.468 13.526 C 5.451 16.124, 8.642 21.599, 10.559 25.694 C 15.579 36.416, 16.809 35.701, 19.884 20.280 C 21.349 12.932, 22.714 8.323, 23.316 8.695 C 23.936 9.079, 24.071 8.401, 23.671 6.906 C 23.317 5.583, 23.021 3.488, 23.014 2.250 C 23.001 0.094, 21.585 -0.820, 20.691 0.750 M 0.079 8.583 C 0.127 9.748, 0.364 9.985, 0.683 9.188 C 0.972 8.466, 0.936 7.603, 0.604 7.271 C 0.272 6.939, 0.036 7.529, 0.079 8.583" stroke="none" fill="black" fill-rule="evenodd"></path>
</symbol><symbol viewBox="0 0 29 27" id="MyFont-w">
	<path d="M 0.412 1.368 C 0.123 2.121, 1.878 7.183, 4.312 12.618 C 6.746 18.053, 9.051 23.512, 9.436 24.750 C 10.411 27.889, 14 27.791, 14 24.625 C 14 23.319, 14.289 20.804, 14.643 19.037 L 15.285 15.824 17.393 18.218 C 20.262 21.476, 24.089 24, 26.161 24 C 28.069 24, 28.653 21.006, 29.304 7.896 C 29.666 0.592, 29.608 0.355, 27.840 1.869 C 26.369 3.129, 26 4.891, 26 10.663 C 26 14.721, 25.531 18.172, 24.928 18.545 C 24.338 18.909, 21.799 17.061, 19.286 14.438 C 14.992 9.957, 14.634 9.781, 13.358 11.525 C 12.611 12.547, 12 14.421, 12 15.691 C 12 20.098, 10.182 17.952, 6.351 9.023 C 2.540 0.139, 1.432 -1.289, 0.412 1.368 M 0.079 2.583 C 0.127 3.748, 0.364 3.985, 0.683 3.188 C 0.972 2.466, 0.936 1.603, 0.604 1.271 C 0.272 0.939, 0.036 1.529, 0.079 2.583" stroke="none" fill="black" fill-rule="evenodd"></path>
</symbol><symbol viewBox="0 0 27 23" id="MyFont-x">
	<path d="M 19.420 1.348 C 19.136 2.089, 17.606 3.654, 16.021 4.826 C 13.301 6.837, 12.935 6.871, 9.467 5.422 C 7.447 4.578, 4.637 4.025, 3.224 4.194 C 0.193 4.555, -1.076 7, 1.767 7 C 4.509 7, 10 9.033, 10 10.048 C 10 10.516, 8.650 12.900, 7 15.345 C 5.350 17.790, 4 20.512, 4 21.395 C 4 24.248, 6.573 23.101, 8.812 19.250 C 12.874 12.263, 13.554 11.692, 16.168 13.080 C 18.516 14.326, 20.632 16.790, 22.525 20.483 C 23.746 22.863, 27 23.768, 27 21.727 C 27 18.983, 23.810 13.957, 20.434 11.382 L 17.023 8.781 20.012 5.989 C 21.655 4.454, 23 2.478, 23 1.599 C 23 -0.340, 20.145 -0.540, 19.420 1.348" stroke="none" fill="black" fill-rule="evenodd"></path>
</symbol><symbol viewBox="0 -20 21 50" id="MyFont-y">
	<path d="M 15.674 0.750 C 15.430 1.163, 14.914 3.412, 14.527 5.750 C 14.141 8.088, 13.579 10, 13.280 10 C 11.816 10, 5.859 5.579, 4.111 3.195 C 2.616 1.157, 1.850 0.780, 0.968 1.649 C -0.885 3.475, 0.762 6.651, 5.302 10.003 C 8.628 12.458, 10.330 13.043, 13.500 12.820 L 17.500 12.539 17.500 18.020 C 17.500 23.280, 17.360 23.571, 14 25.264 C 10.568 26.994, 10.465 26.986, 8.707 24.850 C 7.440 23.311, 7.102 21.811, 7.556 19.743 C 8.101 17.262, 7.917 16.868, 6.350 17.166 C 3.797 17.650, 3.285 24.260, 5.536 27.695 C 6.993 29.918, 7.709 30.168, 11.264 29.691 C 13.499 29.392, 16.491 28.280, 17.913 27.221 C 20.148 25.558, 20.541 24.429, 20.803 18.934 C 21.234 9.892, 17.693 -2.663, 15.674 0.750" stroke="none" fill="black" fill-rule="evenodd"></path>
</symbol></svg>