<svg xmlns="http://www.w3.org/2000/svg" xmlns:xlink="http://www.w3.org/1999/xlink" width="0" height="0" style="display:none;"><symbol viewBox="0 0 25 21" id="MyFont-a">
	<path d="M 9 1.500 C 9 2.325, 8.662 3.012, 8.250 3.027 C 7.838 3.042, 6.390 4.853, 5.034 7.051 C 3.625 9.334, 2.017 10.837, 1.284 10.555 C -0.249 9.967, -0.586 19.520, 0.935 20.460 C 1.450 20.778, 3.063 18.380, 4.521 15.132 C 5.979 11.884, 8.676 7.768, 10.515 5.985 L 13.859 2.745 16.401 5.487 C 18.658 7.923, 23 17.496, 23 20.038 C 23 21.590, 24.732 21.142, 25.393 19.418 C 25.727 18.548, 25.936 15.736, 25.858 13.168 L 25.716 8.500 25 12.500 C 24.589 14.797, 24.223 15.512, 24.142 14.180 C 23.973 11.417, 18.868 3.722, 15.760 1.544 C 12.916 -0.447, 9 -0.473, 9 1.500 M 0.300 15 C 0.300 18.025, 0.487 19.263, 0.716 17.750 C 0.945 16.238, 0.945 13.763, 0.716 12.250 C 0.487 10.738, 0.300 11.975, 0.300 15" stroke="none" fill="black" fill-rule="evenodd"></path>
</symbol><symbol viewBox="0 0 38 58" id="MyFont-b">
	<path d="M 0 2.505 C 0 4.067, 0.711 9.140, 1.581 13.779 C 3.226 22.561, 3.077 28.993, 0.931 41.783 C 0.018 47.225, -0.006 49.691, 0.833 51.533 C 2.836 55.930, 3.686 54.184, 4.332 44.347 C 4.800 37.224, 5.424 34.189, 6.713 32.765 C 11.120 27.895, 23.924 26.094, 28.803 29.659 C 34.528 33.841, 37.118 45.118, 33.591 50.502 C 31.770 53.280, 29.579 53.785, 15 54.782 C 0.508 55.773, 1.728 57.582, 16.640 57.213 C 29.212 56.901, 35.224 55.022, 36.499 51.002 C 36.854 49.885, 37.562 49.229, 38.072 49.544 C 39.517 50.437, 39.165 44.376, 37.426 38.392 C 35.602 32.119, 31.888 27.262, 27.547 25.472 C 24.017 24.017, 13.372 25.244, 8.732 27.640 C 5.437 29.342, 5.392 29.259, 4.580 20 C 3.596 8.776, 0 -4.960, 0 2.505 M 0.272 47 C 0.272 49.475, 0.467 50.487, 0.706 49.250 C 0.944 48.013, 0.944 45.987, 0.706 44.750 C 0.467 43.513, 0.272 44.525, 0.272 47" stroke="none" fill="black" fill-rule="evenodd"></path>
</symbol><symbol viewBox="0 0 30 39" id="MyFont-c">
	<path d="M 15 2.106 C 6.053 7.470, 0.002 17.366, 0.001 26.639 C -0 33.406, 1.864 35.453, 9.831 37.429 C 16.912 39.186, 30 39.556, 30 38 C 30 37.450, 28.709 37, 27.131 37 C 21.912 37, 6.540 33.928, 4.250 32.428 C 0.279 29.827, 1.981 19.993, 7.754 12.182 C 14.328 3.286, 25.167 -0.071, 28.520 5.750 L 30.104 8.500 29.497 5.500 C 29.164 3.850, 28.154 1.937, 27.254 1.250 C 24.768 -0.649, 18.913 -0.240, 15 2.106" stroke="none" fill="black" fill-rule="evenodd"></path>
</symbol><symbol viewBox="0 0 39 68" id="MyFont-d">
	<path d="M 28.017 7.750 C 28.121 12.013, 28.160 19.438, 28.103 24.250 L 28 33 24.250 33.006 C 19.173 33.013, 13.420 34.710, 8.991 37.506 C 4.296 40.470, -0 49.136, 0 55.645 C 0 59.644, 0.500 60.736, 3.882 64.118 L 7.765 68 16.150 68 C 23.346 68, 25.035 67.661, 28.056 65.608 C 31.154 63.503, 31.803 63.383, 33.479 64.608 C 34.526 65.374, 36.296 66, 37.414 66 C 39.374 66, 39.367 65.945, 37.223 64.443 C 34.487 62.528, 34.429 60.503, 36.960 55.429 L 38.920 51.500 38.960 55.417 C 38.982 57.571, 39.230 59.103, 39.512 58.821 C 40.485 57.849, 38.178 26.479, 36.584 19 C 33.523 4.638, 31.856 0, 29.755 0 C 28 0, 27.844 0.697, 28.017 7.750 M 32.063 24.816 C 32.027 31.282, 32.473 37.015, 33.103 38.193 C 33.918 39.714, 33.905 40.441, 33.054 40.967 C 31.656 41.831, 32.028 55.601, 33.441 55.298 C 34.839 54.999, 36.905 46.229, 36.956 40.381 C 37.004 34.814, 34.618 19.726, 33.082 15.889 C 32.386 14.148, 32.110 16.571, 32.063 24.816 M 16.525 36.710 C 7.855 39.006, 0.491 50.898, 3.012 58.535 C 4.566 63.246, 7.440 64.930, 15.156 65.650 C 20.570 66.156, 22.271 65.903, 25.900 64.051 L 30.212 61.851 29.407 56.176 C 28.965 53.054, 28.580 47.350, 28.551 43.500 L 28.500 36.500 23.500 36.344 C 20.750 36.258, 17.611 36.423, 16.525 36.710 M 0.300 55 C 0.300 58.025, 0.487 59.263, 0.716 57.750 C 0.945 56.237, 0.945 53.763, 0.716 52.250 C 0.487 50.737, 0.300 51.975, 0.300 55" stroke="none" fill="black" fill-rule="evenodd"></path>
</symbol><symbol viewBox="0 0 24 23" id="MyFont-e">
	<path d="M 7.073 2.635 C 5.933 4.084, 5 5.659, 5 6.135 C 5 6.611, 4.550 7, 4 7 C 3.450 7, 3 6.127, 3 5.059 C 3 3.089, 1.308 1.359, 0.334 2.333 C 0.041 2.626, 0.348 4.524, 1.017 6.550 C 1.685 8.577, 2.208 12.025, 2.178 14.214 C 2.107 19.341, 3.519 23, 5.569 23 C 6.926 23, 7.082 22.229, 6.532 18.229 C 6.147 15.436, 6.342 12.223, 7.001 10.479 C 8.578 6.307, 12.953 2, 15.615 2 C 18.574 2, 21.996 6.483, 22.015 10.385 C 22.024 12.098, 22.467 14.175, 23 15 C 23.693 16.072, 23.974 14.981, 23.985 11.173 C 23.998 6.608, 23.582 5.428, 21.077 2.923 C 18.711 0.558, 17.295 -0, 13.650 -0 C 9.974 -0, 8.764 0.485, 7.073 2.635" stroke="none" fill="black" fill-rule="evenodd"></path>
</symbol><symbol viewBox="0 0 25 22" id="MyFont-g">
	<path d="M 2.750 3.226 C -1.848 8.585, -0.715 16.965, 5.071 20.383 C 7.327 21.716, 9.841 22.030, 16.402 21.798 L 24.834 21.500 25.539 13.553 L 26.243 5.606 23.106 2.803 C 20.278 0.277, 19.254 0.001, 12.734 0.010 C 5.838 0.020, 5.372 0.170, 2.750 3.226 M 8.169 3.807 C 3.169 5.761, 1.751 7.760, 2.188 12.240 C 2.559 16.044, 7.658 20, 12.188 20 C 16.625 20, 20.757 16.397, 21.524 11.859 C 22.328 7.098, 24.713 6.710, 25.277 11.250 C 25.551 13.460, 25.706 12.900, 25.761 9.500 C 25.806 6.750, 25.619 5.051, 25.346 5.725 C 24.990 6.603, 24.085 6.383, 22.142 4.947 C 18.432 2.204, 13.333 1.788, 8.169 3.807" stroke="none" fill="black" fill-rule="evenodd"></path>
</symbol><symbol viewBox="0 0 44 73" id="MyFont-h">
	<path d="M 0.415 3.750 C 0.740 5.813, 1.686 16.135, 2.517 26.688 C 3.348 37.241, 4.505 48.266, 5.087 51.188 C 5.669 54.110, 6.353 58.480, 6.606 60.900 C 7.138 65.978, 7.733 67.256, 9.317 66.728 C 9.989 66.504, 10.327 64.644, 10.147 62.152 C 9.754 56.706, 12.821 50.337, 18.640 44.518 C 25.750 37.408, 33.044 37.105, 37.159 43.748 C 39.167 46.991, 39.551 49.194, 39.991 59.989 C 40.413 70.352, 40.771 72.530, 42.091 72.782 C 43.449 73.041, 43.710 71.628, 43.877 63.131 C 44.117 50.930, 42.777 45.231, 38.505 40.291 C 35.441 36.748, 34.894 36.514, 30.142 36.710 C 27.345 36.825, 23.671 37.636, 21.978 38.512 C 18.451 40.335, 11.253 47.648, 10.423 50.250 C 8.558 56.099, 6.711 47.169, 4.993 24 C 4.401 16.025, 3.649 7.972, 3.320 6.105 C 2.878 3.591, 3.038 2.905, 3.935 3.460 C 4.800 3.994, 4.771 3.605, 3.833 2.105 C 1.611 -1.454, -0.263 -0.552, 0.415 3.750" stroke="none" fill="black" fill-rule="evenodd"></path>
</symbol><symbol viewBox="0 0 274 90" id="MyFont-i">
	<path d="M 266.924 2.593 C 265.591 4.019, 262.827 6.382, 260.783 7.843 C 258.739 9.304, 252.214 14.707, 246.283 19.850 C 227.710 35.954, 229.057 35.238, 228.921 29.083 C 228.814 24.242, 226.678 12.345, 225.749 11.415 C 224.764 10.430, 224.780 10.707, 226.447 23.336 C 227.518 31.441, 227.599 34.786, 226.771 36.603 C 225.862 38.599, 225.976 39.262, 227.408 40.309 C 228.908 41.406, 229.107 42.987, 228.827 51.543 C 228.397 64.644, 230.244 65.832, 231.224 53.084 C 232.138 41.187, 234.881 34.962, 239.742 33.753 C 242.770 33, 243.563 33.436, 251.775 40.365 C 256.611 44.444, 263.393 50.803, 266.846 54.495 C 273.282 61.375, 276.324 62.735, 271.691 56.662 C 266.905 50.386, 245.916 31.512, 243.352 31.178 C 241.993 31.001, 241.021 30.525, 241.191 30.122 C 241.784 28.714, 261.591 11.466, 267.743 7 C 271.152 4.525, 273.955 1.938, 273.971 1.250 C 274.022 -0.959, 269.426 -0.083, 266.924 2.593 M 122.587 12.746 C 121.891 13.442, 123.961 18.355, 125.313 19.214 C 127.422 20.555, 127.861 20.065, 127.679 16.573 C 127.539 13.898, 127.012 13.052, 125.274 12.716 C 124.049 12.480, 122.840 12.493, 122.587 12.746 M 0.709 13.624 C -1.033 15.366, 0.091 17.122, 2.750 16.816 C 4.387 16.628, 5.500 15.893, 5.500 15 C 5.500 13.428, 1.930 12.403, 0.709 13.624 M 4.679 39.214 C 4.004 46.237, 6.797 63.099, 8.743 63.748 C 10.125 64.208, 10.131 61.380, 8.764 54 C 8.204 50.975, 7.690 45.163, 7.623 41.085 C 7.467 31.654, 5.525 30.419, 4.679 39.214 M 131.880 37.915 C 131.123 40.085, 129.559 41.583, 126.650 42.921 C 122.503 44.830, 122.502 44.832, 125.550 44.916 C 127.227 44.962, 129.115 44.485, 129.745 43.855 C 131.044 42.556, 131.672 44.497, 132.376 52 C 132.608 54.475, 133.519 59.109, 134.399 62.299 C 137.672 74.152, 136.120 82.736, 130.180 85.634 C 123.261 89.009, 114.858 87.386, 112.924 82.301 C 111.575 78.753, 110.615 80.133, 111.425 84.453 C 111.909 87.034, 112.607 88, 113.986 88 C 115.029 88, 116.160 88.450, 116.500 89 C 117.481 90.588, 125.043 90.156, 130.493 88.201 C 139.599 84.935, 142.243 75.842, 137.867 62.839 C 136.311 58.215, 135.683 53.675, 135.546 46.060 C 135.349 35.073, 133.952 31.970, 131.880 37.915 M 231.152 36.885 C 230.410 37.355, 229.961 38.559, 230.154 39.561 C 230.442 41.054, 230.726 40.898, 231.731 38.691 C 233.088 35.712, 233.074 35.667, 231.152 36.885" stroke="none" fill="black" fill-rule="evenodd"></path>
</symbol><symbol viewBox="0 0 38 76" id="MyFont-k">
	<path d="M 13.607 2.095 C 12.142 3.247, 10 6.039, 8.847 8.300 C 6.937 12.044, 6.801 13.532, 7.324 24.956 C 7.668 32.470, 8.718 40.708, 9.942 45.500 C 11.065 49.900, 11.988 53.789, 11.992 54.142 C 11.996 54.494, 10.787 55.088, 9.305 55.459 C 3.367 56.950, -0.387 59.013, 0.758 60.158 C 1.573 60.973, 2.957 60.834, 5.955 59.635 C 10.478 57.825, 14 57.510, 14 58.915 C 14 59.418, 15.389 63.468, 17.088 67.915 C 19.373 73.899, 20.644 76, 21.979 76 C 23.619 76, 23.549 75.524, 21.205 70.750 C 18.445 65.129, 17.487 62.791, 16.506 59.283 C 15.755 56.596, 16.944 56.205, 28.921 55.204 C 34.729 54.718, 37.481 54.069, 37.799 53.111 C 38.182 51.954, 36.690 51.856, 28.880 52.523 C 13.258 53.858, 14.995 54.618, 12.827 45.500 C 7.515 23.167, 9.129 6.260, 16.879 3.050 C 20.398 1.593, 22.072 2.026, 28.378 6.025 C 33.815 9.473, 35.888 13.424, 36.216 20.964 C 36.542 28.461, 38.001 27.056, 37.996 19.250 C 37.992 10.948, 36.011 7.266, 29.275 3.037 C 23.396 -0.655, 17.550 -1.007, 13.607 2.095" stroke="none" fill="black" fill-rule="evenodd"></path>
</symbol><symbol viewBox="0 0 24 42" id="MyFont-o">
	<path d="M 1.588 0.858 C 1.296 1.329, 1.495 3.239, 2.029 5.101 C 3.363 9.752, 3.251 11, 1.500 11 C -0.566 11, -0.390 13.721, 1.751 14.867 C 3.013 15.542, 4.006 18.585, 5.314 25.787 C 7.171 36.019, 8.338 38.121, 13.684 40.875 C 17.220 42.696, 21.787 42.267, 23 40 C 24.229 37.704, 23.299 37.451, 19.686 39.097 C 17.803 39.955, 16.598 39.844, 14.168 38.587 C 10.010 36.437, 9.282 34.802, 7.725 24.116 L 6.397 15 13.782 15 C 23.428 15, 23.207 12.879, 13.425 11.581 C 5.981 10.594, 5.039 9.950, 5.015 5.832 C 4.988 1.156, 3.099 -1.587, 1.588 0.858" stroke="none" fill="black" fill-rule="evenodd"></path>
</symbol><symbol viewBox="0 0 43 85" id="MyFont-q">
	<path d="M 10.500 1.555 C 3.729 3.646, -0.406 8.112, 0.315 12.557 C 1.709 21.146, 8.709 25.294, 21.884 25.337 C 26.623 25.352, 31.143 25.170, 31.928 24.932 C 32.926 24.630, 33.585 25.707, 34.114 28.500 C 38.702 52.735, 39.998 60.505, 39.988 63.719 C 39.973 68.576, 37.625 77.398, 35.474 80.681 C 34.032 82.880, 33.266 83.165, 29.971 82.723 C 27.866 82.441, 22.623 80.475, 18.322 78.355 C 11.641 75.062, 10.326 73.990, 9.306 71 L 8.113 67.500 8.056 71.076 C 7.986 75.544, 10.266 77.806, 19 81.929 C 26.308 85.380, 32.669 85.918, 36.497 83.410 C 37.868 82.512, 39.811 79.450, 40.962 76.372 C 43.773 68.859, 43.597 59.095, 40.377 43.888 C 38.640 35.682, 37.707 28.021, 37.615 21.195 C 37.487 11.808, 37.631 10.932, 39.237 11.352 C 40.207 11.605, 41 11.496, 41 11.109 C 41 10.039, 33.806 3.394, 31.199 2.056 C 27.393 0.103, 16.089 -0.171, 10.500 1.555 M 13.025 3.603 C 6.042 5.479, 3 8.262, 3 12.773 C 3 15.306, 3.799 16.944, 6.072 19.067 C 9.612 22.374, 13.849 23.481, 23 23.492 C 32.536 23.504, 33 23.160, 33 16.090 C 33 12.806, 33.450 9.840, 34 9.500 C 35.733 8.429, 35.103 7.225, 31.750 5.206 C 27.212 2.473, 19.641 1.825, 13.025 3.603" stroke="none" fill="black" fill-rule="evenodd"></path>
</symbol><symbol viewBox="0 0 26 42" id="MyFont-s">
	<path d="M 14.500 1.142 C 12.300 1.676, 9.522 2.313, 8.327 2.556 C 4.238 3.390, 0 7.892, 0 11.402 C -0 15.132, 2.305 17.600, 11.706 23.934 C 15.120 26.234, 19.374 29.481, 21.161 31.150 L 24.408 34.184 21.954 36.070 C 16.876 39.974, 13.747 39.669, 2.666 34.190 C 2.207 33.963, 1.982 34.840, 2.166 36.139 C 2.426 37.976, 3.609 38.870, 7.500 40.170 C 14.263 42.428, 18.864 42.380, 22.750 40.011 C 29.483 35.906, 26.350 30.733, 9.851 18.709 C 5.643 15.643, 1.914 12.671, 1.564 12.104 C 0.408 10.234, 4.780 7.148, 11.547 5.058 C 20.358 2.337, 21.351 2.385, 20.754 5.509 C 20.357 7.582, 20.520 7.814, 21.688 6.844 C 22.465 6.199, 22.966 4.508, 22.801 3.086 C 22.454 0.105, 20.579 -0.334, 14.500 1.142" stroke="none" fill="black" fill-rule="evenodd"></path>
</symbol><symbol viewBox="0 0 50 35" id="MyFont-w">
	<path d="M 30.874 0.750 C 30.805 1.163, 30.848 5.388, 30.970 10.139 C 31.317 23.662, 27.301 30.774, 18.791 31.707 C 8.246 32.862, 0.413 20.769, 2.535 6.613 C 2.964 3.751, 2.849 2, 2.230 2 C 0.737 2, 0.288 4.757, 0.437 13.029 C 0.578 20.863, 1.611 23.455, 6.932 29.339 C 10.634 33.433, 14.218 35, 19.874 35 C 23.800 35, 25.512 34.440, 28.009 32.339 C 29.749 30.875, 31.575 28.617, 32.068 27.321 C 32.962 24.971, 32.976 24.976, 37.022 29.022 C 41.143 33.143, 44.573 35, 48.065 35 C 51.002 35, 50.377 33.325, 47.202 32.690 C 45.664 32.383, 42.461 30.406, 40.086 28.298 L 35.766 24.465 35.024 13.366 C 34.616 7.261, 33.967 1.756, 33.582 1.133 C 32.792 -0.146, 31.065 -0.390, 30.874 0.750" stroke="none" fill="black" fill-rule="evenodd"></path>
</symbol></svg>